<?xml version="1.0" encoding="UTF-8"?><svg id="a" xmlns="http://www.w3.org/2000/svg" width="146.12" height="40.1" viewBox="0 0 146.12 40.1"><defs><style>.b{fill:#f4f4f4;}.c{fill:#3d3d3d;}.d{fill:#cbcbcb;}.e{fill:#fafafa;}.f{fill:#f6f6f6;}.g{fill:#e10d17;}.h{fill:#989898;}.i{fill:#f5f5f5;}.j{fill:#020202;}.k{fill:#d6d6d6;}.l{fill:#aa0914;}.m{fill:#030303;}.n{font-family:LazerGameZone, 'Lazer Game Zone';}.o{fill:#fff;font-size:20.83px;}.p{fill:#fdfdfd;}.q{fill:#fefbfb;}.r{fill:#71060d;}.s{fill:#3b0307;}.t{fill:none;}.u{fill:#4f4f4f;}.v{fill:#353535;}.w{font-family:MyriadPro-Regular, 'Myriad Pro';}.x{fill:#1f1f1f;}.y{fill:#7a7a7a;}.z{fill:rgba(29,29,27,0);}.aa{fill:#b9b9b9;}.ab{fill:#fcfcfc;}</style></defs><path class="t" d="m19.14,40.1H0V0h40v19.49s-.02,0-.03,0c0-.14,0-.28-.01-.41-.02-.24-.04-.48-.07-.72-.03-.24-.08-.48-.11-.72-.03-.21-.05-.43-.08-.64-.05-.31-.12-.61-.2-.91-.14-.57-.3-1.13-.49-1.69-.19-.57-.41-1.12-.64-1.67-.17-.41-.38-.8-.58-1.19-.29-.58-.62-1.13-.98-1.66-.3-.45-.62-.88-.95-1.31-.36-.46-.74-.9-1.13-1.34-.22-.25-.47-.48-.71-.7-.35-.33-.69-.66-1.06-.96-.49-.4-.99-.79-1.52-1.15-.58-.39-1.19-.75-1.8-1.09-.47-.26-.97-.49-1.46-.7-.51-.22-1.04-.42-1.57-.61-.45-.16-.9-.29-1.36-.42-.32-.09-.65-.16-.98-.23-.46-.09-.92-.16-1.38-.23-.34-.05-.68-.09-1.02-.12-.27-.03-.54-.05-.81-.06-.95-.04-1.9-.01-2.85.07-.14.01-.29,0-.43.04-.3.08-.61.06-.92.14-.31.08-.64.09-.95.17-.5.13-1,.24-1.5.39-.39.12-.78.24-1.17.38-.57.2-1.12.44-1.67.69-.75.36-1.49.74-2.18,1.2-.37.24-.74.49-1.1.75-.25.18-.49.36-.72.55-.34.28-.69.55-1.02.86-.52.5-1.04,1-1.51,1.55-.21.25-.43.49-.62.74-.4.51-.79,1.03-1.13,1.59-.28.46-.56.91-.81,1.37-.22.41-.41.85-.61,1.27-.22.47-.4.95-.57,1.44-.07.19-.12.39-.19.58-.05.16-.11.31-.16.46-.09.34-.18.68-.26,1.02-.06.26-.12.53-.17.79-.04.19-.05.37-.08.56-.04.24-.08.48-.11.72-.02.22-.03.44-.04.67-.02.41-.06.82-.06,1.23,0,.42.02.85.03,1.27,0,.11,0,.21.01.32.03.39.07.78.1,1.17.01.14.02.27.04.4.04.26.1.53.15.79.07.33.13.65.21.97.09.34.19.67.29,1.01.09.31.2.61.3.92.07.2.15.39.23.58.14.33.26.67.42.99.22.45.46.9.69,1.34.36.68.78,1.32,1.24,1.94.49.67,1.02,1.32,1.6,1.92.32.34.64.67.99.98.09.08.17.17.26.25.31.26.61.51.93.76.41.31.83.62,1.26.91.29.2.59.39.89.57.34.2.69.39,1.05.57.38.19.76.38,1.15.55.36.16.72.3,1.09.45.14.06.27.1.41.15.32.1.63.2.95.3.13.04.26.08.39.11.35.09.69.17,1.05.25.21.05.42.09.64.12.2.03.39.05.59.08.23.03.46.08.7.1.42.04.85.06,1.27.08v.03h0Z"/><path class="z" d="m40,21.55v18.55h-18.91s0-.02,0-.03c.31-.03.61-.05.92-.08.23-.02.46-.04.69-.08.34-.05.69-.09,1.03-.15.37-.07.74-.14,1.11-.23.74-.17,1.46-.4,2.17-.64.49-.17.98-.38,1.45-.6.49-.23.98-.47,1.46-.74.54-.31,1.07-.64,1.58-.98.52-.34,1.02-.72,1.48-1.13.31-.28.63-.53.93-.82.27-.25.51-.52.77-.78.24-.26.5-.51.72-.79.39-.48.77-.96,1.13-1.46.49-.69.93-1.42,1.31-2.17.21-.41.4-.84.58-1.26.18-.41.34-.83.5-1.25.1-.28.18-.56.26-.84.06-.19.14-.38.18-.57.07-.37.19-.73.24-1.1.05-.4.15-.79.22-1.18.04-.2.06-.41.08-.62.03-.35.05-.69.08-1.04h.02s.02,0,.02,0h0Z"/><path class="m" d="m39.96,21.55c-.03.35-.05.69-.08,1.04-.02.21-.04.42-.08.62-.07.4-.17.79-.22,1.18-.05.38-.17.73-.24,1.1-.04.2-.12.38-.18.57-.09.28-.16.57-.26.84-.16.42-.32.84-.5,1.25-.18.42-.38.85-.58,1.26-.38.76-.82,1.48-1.31,2.17-.36.5-.74.98-1.13,1.46-.22.28-.47.53-.72.79-.25.26-.5.53-.77.78-.3.28-.62.54-.93.82-.46.42-.96.79-1.48,1.13-.52.34-1.04.67-1.58.98-.47.27-.96.51-1.46.74-.47.22-.96.43-1.45.6-.71.25-1.43.47-2.17.64-.37.08-.73.16-1.11.23-.34.06-.69.11-1.03.15-.23.03-.46.05-.69.08-.31.03-.61.06-.92.08-.18,0-.35,0-.53,0-.28,0-.57,0-.85,0-.19,0-.38,0-.56,0-.42-.03-.85-.04-1.27-.08-.23-.02-.47-.07-.7-.1-.2-.03-.39-.05-.59-.08-.21-.04-.43-.08-.64-.12-.35-.08-.7-.17-1.05-.25-.13-.03-.26-.07-.39-.11-.32-.1-.63-.2-.95-.3-.14-.04-.28-.1-.41-.15-.36-.15-.73-.29-1.09-.45-.39-.17-.77-.36-1.15-.55-.35-.18-.7-.37-1.05-.57-.3-.18-.6-.37-.89-.57-.42-.3-.84-.6-1.26-.91-.32-.24-.62-.5-.93-.76-.09-.08-.17-.17-.26-.25-.35-.31-.67-.64-.99-.98-.58-.6-1.11-1.25-1.6-1.92-.45-.62-.87-1.27-1.24-1.94-.24-.44-.47-.89-.69-1.34-.16-.32-.28-.66-.42-.99-.08-.19-.16-.38-.23-.58-.11-.3-.21-.61-.3-.92-.1-.34-.2-.67-.29-1.01-.08-.32-.14-.65-.21-.97-.05-.26-.1-.52-.15-.79-.02-.13-.03-.27-.04-.4-.04-.39-.07-.78-.1-1.17,0-.11-.01-.21-.01-.32-.01-.42-.03-.85-.03-1.27,0-.41.04-.82.06-1.23.01-.22.02-.45.04-.67.03-.24.08-.48.11-.72.03-.19.04-.38.08-.56.05-.26.11-.53.17-.79.08-.34.16-.68.26-1.02.04-.16.1-.31.16-.46.06-.19.12-.39.19-.58.17-.49.35-.97.57-1.44.2-.42.39-.86.61-1.27.25-.47.53-.92.81-1.37.34-.56.73-1.08,1.13-1.59.2-.26.42-.49.62-.74.46-.55.98-1.06,1.51-1.55.32-.31.67-.58,1.02-.86.24-.19.47-.38.72-.55.36-.26.73-.51,1.1-.75.69-.46,1.43-.84,2.18-1.2.54-.26,1.1-.49,1.67-.69.39-.14.78-.26,1.17-.38.49-.15,1-.26,1.5-.39.31-.08.64-.09.95-.17.3-.08.61-.06.92-.14.14-.04.28-.03.43-.04.95-.08,1.9-.1,2.85-.07.27.01.54.04.81.06.34.03.68.07,1.02.12.46.07.92.14,1.38.23.33.06.65.14.98.23.46.13.91.26,1.36.42.53.19,1.05.39,1.57.61.5.21.99.44,1.46.7.61.34,1.22.7,1.8,1.09.53.35,1.03.75,1.52,1.15.37.3.71.63,1.06.96.24.23.49.46.71.7.39.44.77.88,1.13,1.34.34.42.65.86.95,1.31.36.53.69,1.09.98,1.66.2.4.41.79.58,1.19.23.55.45,1.11.64,1.67.19.55.35,1.12.49,1.69.08.3.14.61.2.91.04.21.05.43.08.64.04.24.08.48.11.72.03.24.05.48.07.72.01.14,0,.28.01.41,0,.08,0,.16,0,.24,0,.08.02.17.04.25v1.05s-.04.07-.04.1c0,.14,0,.28,0,.43h.01Zm-19.84,17.93v-.03c.27,0,.55,0,.82,0,.23,0,.47-.02.7-.04.39-.04.78-.09,1.17-.14.2-.02.4-.04.59-.08.36-.07.73-.14,1.09-.23.41-.1.83-.19,1.23-.31.41-.12.8-.28,1.2-.42.6-.21,1.18-.47,1.76-.75.54-.26,1.06-.54,1.56-.87s1.01-.64,1.48-.99c.49-.37.97-.77,1.43-1.18.63-.56,1.21-1.17,1.75-1.81.41-.49.8-.98,1.16-1.51.33-.49.63-1,.94-1.5.14-.23.26-.47.38-.71.14-.28.26-.55.38-.83.08-.18.18-.37.24-.56.21-.59.42-1.18.6-1.78.12-.37.19-.75.29-1.13.04-.14.08-.28.11-.42.03-.16.06-.31.08-.47.03-.2.04-.4.07-.6.04-.31.11-.62.14-.93.04-.43.06-.86.08-1.29,0-.34-.01-.67-.02-1.01,0-.48-.04-.95-.11-1.43-.06-.37-.08-.74-.16-1.11-.07-.36-.11-.72-.2-1.08-.12-.5-.27-.99-.42-1.49-.07-.24-.16-.48-.25-.71-.13-.33-.27-.65-.4-.98-.1-.24-.2-.49-.31-.73-.17-.35-.36-.69-.54-1.03-.34-.61-.71-1.19-1.12-1.76-.53-.75-1.12-1.46-1.76-2.12-.46-.47-.93-.91-1.43-1.34-.44-.38-.91-.73-1.39-1.07-.38-.27-.78-.51-1.18-.75-.25-.15-.5-.3-.75-.44-.36-.19-.73-.38-1.1-.55-.23-.11-.47-.19-.7-.29-.33-.13-.65-.28-.99-.4-.32-.11-.65-.2-.98-.3-.43-.12-.86-.23-1.3-.33-.43-.1-.87-.17-1.31-.25-.37-.07-.75-.11-1.13-.14-.46-.04-.92-.07-1.39-.07-.63,0-1.27.04-1.9.06-.19,0-.38.02-.57.04-.25.03-.49.07-.73.11-.28.04-.55.08-.83.13-.18.04-.36.07-.54.12-.26.08-.54.12-.81.19-.53.13-1.05.29-1.56.49-.29.11-.57.21-.85.34-.3.15-.63.26-.93.41-.31.15-.61.31-.92.47-.32.17-.64.34-.94.54-.48.31-.95.63-1.41.97-.43.32-.85.65-1.25,1.01-.33.28-.62.6-.93.9-.38.37-.73.76-1.06,1.17-.34.43-.68.85-.99,1.3-.44.63-.84,1.27-1.19,1.95-.2.4-.41.81-.6,1.22-.12.26-.23.53-.33.8-.15.4-.31.8-.44,1.2-.13.4-.22.81-.33,1.21-.02.08-.02.17-.04.25-.04.18-.1.35-.13.53-.05.27-.08.53-.12.8-.04.24-.09.48-.11.72-.03.39-.06.78-.07,1.18,0,.62,0,1.24.02,1.85.02.5.03,1,.12,1.5.05.28.07.57.12.85.06.35.14.71.23,1.05.1.4.22.79.34,1.19.12.38.24.75.38,1.12.19.47.4.94.61,1.4.3.63.63,1.23,1,1.81.4.63.82,1.23,1.29,1.81.45.56.93,1.1,1.44,1.6.17.17.33.34.51.51.19.17.39.34.58.5.25.21.49.42.75.61.49.36.99.73,1.52,1.04.46.27.91.55,1.39.79.42.22.85.41,1.29.6.39.17.79.33,1.19.47.35.12.71.22,1.07.33.21.06.41.12.62.18.27.07.53.13.81.19.29.06.57.11.86.16.19.03.38.04.57.08.22.04.44.07.67.07.08,0,.15,0,.23,0,.54.03,1.07.06,1.61.09h0Z"/><path class="c" d="m19.7,40.07c.28,0,.57,0,.85,0,0,.01,0,.02,0,.03h-.84s-.01-.02,0-.03h0Z"/><path class="aa" d="m19.7,40.07s0,.02,0,.03h-.57v-.03c.19,0,.38,0,.56,0h0Z"/><path class="aa" d="m20.55,40.1s0-.02,0-.03c.18,0,.35,0,.53,0,0,.01,0,.02,0,.03,0,0-.53,0-.53,0Z"/><path class="h" d="m39.96,21.55c0-.14,0-.28,0-.43,0-.03.02-.07.04-.1v.53h-.02s-.02,0-.02,0Z"/><path class="h" d="m40,19.98c-.01-.08-.03-.16-.04-.25,0-.08,0-.16,0-.24.01,0,.02,0,.03,0v.49h0Z"/><path class="p" d="m20.12,39.49c-.54-.03-1.07-.06-1.61-.09-.08,0-.15,0-.23,0-.23,0-.45-.03-.67-.07-.19-.04-.38-.05-.57-.08-.29-.05-.57-.1-.86-.16-.27-.06-.54-.12-.81-.19-.21-.05-.42-.11-.62-.18-.36-.11-.72-.21-1.07-.33-.4-.14-.8-.3-1.19-.47-.44-.19-.87-.38-1.29-.6-.47-.25-.93-.53-1.39-.79-.53-.31-1.02-.68-1.52-1.04-.26-.19-.5-.41-.75-.61-.2-.16-.4-.33-.58-.5-.18-.16-.34-.34-.51-.51-.52-.5-.99-1.04-1.44-1.6-.47-.58-.9-1.18-1.29-1.81-.37-.59-.71-1.19-1-1.81-.22-.46-.43-.93-.61-1.4-.15-.37-.26-.74-.38-1.12-.12-.39-.24-.79-.34-1.19-.09-.35-.16-.7-.23-1.05-.05-.28-.07-.57-.12-.85-.09-.5-.1-1-.12-1.5-.02-.62-.03-1.24-.02-1.85,0-.39.03-.79.07-1.18.02-.24.07-.48.11-.72.04-.27.07-.53.12-.8.03-.18.09-.35.13-.53.02-.08.02-.17.04-.25.11-.41.2-.81.33-1.21.13-.41.28-.8.44-1.2.1-.27.21-.54.33-.8.19-.41.39-.81.6-1.22.34-.68.75-1.33,1.19-1.95.31-.45.65-.87.99-1.3.33-.41.68-.8,1.06-1.17.31-.3.61-.62.93-.9.4-.35.82-.69,1.25-1.01.46-.34.93-.66,1.41-.97.3-.2.62-.37.94-.54.3-.16.61-.32.92-.47.31-.14.63-.26.93-.41.28-.13.56-.23.85-.34.51-.19,1.03-.36,1.56-.49.27-.07.55-.11.81-.19.18-.06.36-.09.54-.12.27-.06.55-.09.83-.13.24-.04.49-.08.73-.11.19-.02.38-.04.57-.04.63-.02,1.27-.06,1.9-.06.46,0,.92.03,1.39.07.38.03.76.08,1.13.14.44.08.87.15,1.31.25.44.1.87.2,1.3.33.33.09.66.18.98.3.34.12.66.26.99.4.23.09.47.18.7.29.37.18.74.36,1.1.55.26.14.51.29.75.44.4.25.8.48,1.18.75.47.34.94.69,1.39,1.07.49.43.97.87,1.43,1.34.64.66,1.23,1.37,1.76,2.12.4.57.78,1.15,1.12,1.76.19.34.37.68.54,1.03.12.24.21.48.31.73.14.33.28.65.4.98.09.24.18.47.25.71.14.49.29.99.42,1.49.09.35.12.72.2,1.08.07.37.1.74.16,1.11.07.47.1.95.11,1.43,0,.34.03.67.02,1.01-.01.43-.04.86-.08,1.29-.03.31-.09.62-.14.93-.03.2-.05.4-.07.6-.02.16-.05.31-.08.47-.03.14-.07.28-.11.42-.09.38-.17.76-.29,1.13-.19.6-.4,1.19-.6,1.78-.07.19-.16.37-.24.56-.13.28-.25.56-.38.83-.12.24-.24.48-.38.71-.31.51-.61,1.01-.94,1.5-.35.53-.75,1.02-1.16,1.51-.54.64-1.12,1.25-1.75,1.81-.46.41-.93.81-1.43,1.18-.48.36-.99.67-1.48.99-.5.33-1.03.61-1.56.87-.57.28-1.15.54-1.76.75-.4.14-.8.3-1.2.42-.4.12-.82.22-1.23.31-.36.08-.72.16-1.09.23-.2.04-.39.05-.59.08-.39.05-.78.1-1.17.14-.23.02-.47.04-.7.04-.27,0-.55,0-.82,0v.03h0Zm18.72-19h-.03c0-.29,0-.57,0-.86,0-.24-.03-.47-.06-.71-.02-.26-.06-.51-.09-.77-.02-.2-.05-.39-.08-.58-.03-.17-.09-.34-.11-.52-.02-.31-.13-.6-.18-.9-.03-.18-.1-.36-.16-.55-.09-.31-.16-.62-.26-.91-.17-.46-.36-.91-.54-1.37-.28-.74-.65-1.43-1.06-2.11-.28-.46-.59-.91-.89-1.36-.44-.65-.96-1.25-1.49-1.83-.24-.26-.5-.51-.77-.76-.32-.3-.64-.6-.98-.88-.42-.34-.84-.66-1.28-.97-.35-.24-.71-.47-1.08-.69-.29-.17-.59-.32-.88-.49-.43-.25-.88-.45-1.34-.64-.41-.17-.83-.33-1.25-.48-.45-.17-.91-.3-1.38-.41-.22-.05-.44-.14-.67-.17-.31-.05-.62-.14-.94-.17-.35-.04-.7-.12-1.05-.14-.13,0-.26-.02-.39-.04-.15-.02-.3-.06-.44-.07-.41-.02-.82-.04-1.23-.05-.3,0-.61,0-.91.02-.4.02-.79.07-1.19.1-.26.02-.51.04-.76.08-.27.04-.53.1-.8.15-.28.06-.57.1-.85.18-.41.11-.81.24-1.22.35-.57.15-1.13.36-1.67.59-.5.21-.99.46-1.47.7-.39.2-.76.43-1.13.64-.61.36-1.18.76-1.73,1.2-.46.36-.91.73-1.32,1.14-.25.25-.51.48-.75.74-.3.33-.59.66-.87,1.01-.3.37-.58.74-.85,1.13-.44.63-.85,1.28-1.19,1.97-.22.43-.44.85-.63,1.29-.17.38-.3.77-.45,1.16-.06.17-.11.35-.17.52-.05.16-.11.31-.15.46-.06.24-.11.47-.17.71-.07.29-.16.58-.22.87-.06.31-.12.62-.15.94s-.06.63-.08.94c-.03.41-.06.82-.07,1.23,0,.26.01.51.02.77.02.38.04.75.05,1.12,0,.09-.01.19,0,.28.03.26.08.51.11.76.03.2.04.4.08.6.09.43.19.85.3,1.28.08.32.16.63.27.94.12.35.24.71.36,1.06.16.45.35.88.56,1.31.34.71.72,1.4,1.15,2.06.34.51.68,1.02,1.08,1.5.37.45.75.89,1.14,1.31.27.29.56.55.86.82.31.28.63.55.96.81.38.3.76.58,1.15.85.58.41,1.18.77,1.81,1.09.4.21.81.39,1.21.58.35.16.71.32,1.07.45.37.14.75.25,1.12.37.23.07.46.13.69.19.28.07.57.14.86.2.24.05.47.08.71.12.31.05.61.1.92.14.21.03.42.03.64.04.48.02.96.06,1.44.06.39,0,.77,0,1.16-.02.36-.02.73-.04,1.09-.08.27-.03.54-.08.81-.12.17-.02.34-.04.5-.08.3-.07.59-.16.9-.21.5-.08.98-.24,1.46-.39.25-.08.49-.17.74-.26.46-.18.93-.36,1.38-.56.41-.19.81-.39,1.21-.61.46-.26.91-.53,1.35-.81.53-.35,1.05-.72,1.53-1.14.29-.25.59-.48.87-.75.35-.33.68-.67,1-1.02.29-.31.57-.63.84-.96.24-.29.46-.6.68-.91.49-.69.93-1.4,1.31-2.15.18-.35.34-.71.49-1.08.16-.37.32-.74.45-1.11.17-.47.33-.94.44-1.42.08-.32.16-.63.21-.95.06-.35.17-.69.19-1.04.03-.37.12-.74.15-1.11.05-.54.07-1.08.1-1.62h0Z"/><path d="m38.84,20.48c-.03.54-.05,1.09-.1,1.62-.03.37-.12.74-.15,1.11-.02.36-.13.69-.19,1.04-.06.32-.14.63-.21.95-.12.48-.27.95-.44,1.42-.14.38-.3.75-.45,1.11-.16.36-.31.73-.49,1.08-.38.75-.82,1.47-1.31,2.15-.22.31-.44.61-.68.91-.27.33-.55.65-.84.96-.33.35-.66.69-1,1.02-.28.26-.58.49-.87.75-.48.42-.99.8-1.53,1.14-.44.28-.89.56-1.35.81-.39.22-.8.43-1.21.61-.45.2-.92.38-1.38.56-.24.1-.49.19-.74.26-.48.14-.96.3-1.46.39-.3.05-.6.15-.9.21-.16.04-.33.05-.5.08-.27.04-.54.09-.81.12-.36.04-.73.06-1.09.08-.39.02-.77.03-1.16.02-.48,0-.96-.04-1.44-.06-.21-.01-.43-.02-.64-.04-.31-.04-.61-.1-.92-.14-.24-.04-.47-.07-.71-.12-.29-.06-.57-.13-.86-.2-.23-.06-.46-.12-.69-.19-.38-.12-.75-.23-1.12-.37-.36-.14-.71-.29-1.07-.45-.41-.18-.82-.37-1.21-.58-.62-.33-1.23-.69-1.81-1.09-.39-.28-.78-.56-1.15-.85-.33-.26-.65-.53-.96-.81-.3-.26-.59-.53-.86-.82-.39-.43-.77-.87-1.14-1.31-.4-.47-.74-.98-1.08-1.5-.44-.66-.81-1.35-1.15-2.06-.2-.43-.4-.86-.56-1.31-.13-.35-.24-.71-.36-1.06-.1-.31-.19-.63-.27-.94-.11-.42-.21-.85-.3-1.28-.04-.2-.06-.4-.08-.6-.04-.25-.08-.51-.11-.76-.01-.09,0-.19,0-.28-.02-.38-.04-.75-.05-1.12-.01-.26-.03-.51-.02-.77.01-.41.04-.82.07-1.23.02-.31.04-.63.08-.94.04-.31.09-.63.15-.94.06-.29.14-.58.22-.87.06-.24.11-.47.17-.71.04-.16.1-.31.15-.46.06-.18.1-.35.17-.52.14-.39.28-.78.45-1.16.19-.44.42-.86.63-1.29.35-.69.75-1.34,1.19-1.97.27-.38.56-.76.85-1.13.28-.34.57-.68.87-1.01.24-.26.51-.49.75-.74.41-.42.86-.78,1.32-1.14.55-.44,1.13-.84,1.73-1.2.38-.22.75-.45,1.13-.64.48-.25.97-.49,1.47-.7.54-.23,1.1-.44,1.67-.59.41-.11.81-.24,1.22-.35.28-.07.57-.12.85-.18.27-.05.53-.11.8-.15.25-.04.51-.06.76-.08.4-.04.79-.08,1.19-.1.3-.02.61-.02.91-.02.41,0,.82.03,1.23.05.15,0,.3.05.44.07.13.02.26.03.39.04.36.02.7.1,1.05.14.32.03.62.12.94.17.23.04.44.12.67.17.47.11.93.24,1.38.41.42.16.83.32,1.25.48.46.19.91.39,1.34.64.29.17.59.32.88.49.36.22.73.44,1.08.69.44.31.87.63,1.28.97.34.28.66.58.98.88.26.25.52.49.77.76.54.58,1.05,1.18,1.49,1.83.3.45.62.89.89,1.36.4.68.78,1.37,1.06,2.11.18.46.37.91.54,1.37.11.3.18.61.26.91.05.18.12.36.16.55.06.3.16.59.18.9.01.17.08.34.11.52.03.19.06.39.08.58.03.26.06.51.09.77.02.24.05.47.06.71,0,.29,0,.57,0,.86h.04Zm-8.83,5.31s-.02.04-.03.06c0,0,.02,0,.02,0,0-.02,0-.05,0-.07h.01s0,0,0,0h0Zm-19.69-9.63s.03,0,.04,0c0-.01-.01-.02-.02-.04l-.09-.06c-.18-.18-.38-.34-.62-.44-.24-.1-.48-.19-.76-.15-.37.05-.62.28-.83.55-.14.19-.25.41-.39.64-.06,0-.15,0-.23-.03-.22-.08-.43-.04-.63.08-.32.18-.49.48-.62.81-.08.2-.14.41-.22.61-.11,0-.21,0-.31,0-.31.02-.56.13-.73.4-.09.14-.13.29-.18.44-.11.33-.18.67-.19,1.01-.02.63-.04,1.27.03,1.91,0,.08-.01.16,0,.24.03.24.07.48.11.72.05.32.1.65.17.97.09.4.22.79.32,1.19.12.47.3.93.49,1.38.18.42.39.82.65,1.19.18.26.38.51.65.69.33.22.53.16.72.02.08-.06.15-.15.26-.25.04.06.07.11.11.16.22.28.47.54.78.72.34.2.69.24,1.03-.02.12-.09.22-.2.34-.31.06.04.12.09.19.13.3.2.6.39.98.33.16-.02.34-.06.47-.14.18-.12.32-.29.48-.44,0-.01,0-.03,0-.04-.01,0-.02.01-.03.02-.03,0-.06,0-.1,0-.28.04-.52,0-.75-.18-.33-.25-.6-.54-.83-.88-.45-.67-.8-1.4-1.07-2.16-.16-.47-.31-.95-.46-1.42-.03-.1-.06-.2-.08-.3-.06-.28-.12-.56-.18-.84-.05-.23-.09-.45-.13-.68-.03-.22-.05-.44-.08-.66-.04-.34-.09-.67-.11-1.01-.02-.37-.01-.74-.01-1.11,0-.26-.01-.51.01-.77.03-.29.1-.57.15-.86.08-.44.22-.85.49-1.21.2-.27.48-.4.83-.33.08.02.16.05.23.07.02.01.04.02.05.03h0Zm18.7,4.3s.08-.07.12-.11c.18-.1.29-.06.33.13.06.24.06.48.05.72-.03.51-.13,1-.26,1.49-.07.28-.17.56-.27.83-.06.16-.13.32-.28.44-.1.08-.17.08-.24-.03-.05-.08-.1-.16-.14-.25,0-.04,0-.07-.01-.1h-.02v.1c0,.11,0,.22.06.32.12.23.3.28.5.11.09-.07.16-.15.24-.23.15-.17.24-.38.33-.59.2-.48.33-.97.36-1.48.05-.01.09-.03.03-.08.03-.29.03-.57-.03-.87-.03-.18-.07-.36-.16-.51-.14-.25-.35-.27-.53-.04-.03.04-.06.09-.09.13,0,.01,0,.03-.01.04.01,0,.02-.01.03-.02h0Zm-18.52,5.74s.03.06.04.09c.07.14.13.27.2.41.12.3.31.56.52.81.12.14.26.29.44.37.21.09.42.1.62-.04.19-.13.29-.32.37-.52.18-.46.26-.93.3-1.42.03-.38.02-.76.02-1.14,0-.18,0-.36-.03-.54-.03-.28-.07-.56-.1-.84-.02-.14-.04-.29-.05-.44-.04,0-.08,0-.12,0-.12,0-.15.05-.13.15.04.22.09.44.11.67.04.33.06.67.08,1,.04.77,0,1.54-.19,2.3-.06.23-.15.45-.34.62-.14.14-.32.14-.46.08-.16-.06-.31-.19-.43-.32-.22-.24-.42-.5-.58-.79-.07-.13-.15-.25-.22-.38-.01-.03-.02-.06-.04-.09,0-.12-.07-.21-.14-.3-.01,0-.02.01-.04.02.05.1.1.2.15.31h0Zm-1.49-7.52v.67h.02c.01-.22.03-.44.04-.67.01-.15.03-.3.04-.45.04-.2.07-.41.12-.61.06-.23.15-.46.29-.65.14-.2.31-.3.58-.19.12.05.24.14.34.23.29.26.49.59.65.94.18.36.34.72.49,1.09.17.44.34.88.44,1.34.03.13.09.25.13.38.07-.02.13-.04.2-.05,0-.03.02-.06,0-.09-.05-.17-.09-.34-.14-.51-.09-.27-.18-.54-.28-.81-.13-.34-.26-.67-.41-1-.2-.44-.45-.85-.76-1.23-.18-.21-.39-.38-.65-.48-.16-.06-.33-.05-.47.05-.13.09-.24.2-.3.34-.2.4-.3.81-.3,1.25l-.04.45h0Zm22.33.49c0-.18,0-.36,0-.54,0-.03-.02-.06-.03-.1-.01-.15-.02-.31-.04-.46,0-.1-.03-.19-.04-.29-.03-.33-.13-.64-.31-.91-.22-.31-.53-.43-.92-.18-.25.15-.44.37-.6.61-.45.63-.76,1.33-1.02,2.05-.09.24-.16.49-.24.74-.06.2-.12.39-.19.6.09.02.17.04.25.06.11-.37.21-.72.32-1.07.23-.73.53-1.43.92-2.09.16-.27.36-.52.61-.73.26-.22.57-.18.77.1.2.27.28.58.35.9.05.23.08.47.12.7.01.2.02.4.04.6v.27h.03v-.28h0Zm-1.45,6.85c-.07.14-.15.29-.22.43-.1.17-.21.35-.31.52-.02.03-.05.05-.07.08-.16.23-.35.44-.59.6-.26.18-.5.15-.69-.09-.08-.1-.15-.22-.2-.35-.08-.21-.14-.42-.17-.65-.02-.2-.06-.4-.07-.6-.02-.7,0-1.4.04-2.09.01-.22.05-.44.08-.66,0-.01.01-.02.02-.03.05-.08.03-.16,0-.24-.24-.04-.25-.03-.26.2,0,.16-.02.31-.04.46-.02.18-.07.35-.07.53-.01.44,0,.89,0,1.33,0,.21-.01.41.01.62.02.22.07.44.12.67.07.34.17.66.38.94.18.23.39.31.68.22.23-.07.42-.22.56-.41.13-.16.23-.33.35-.5l.29-.53c.06-.14.13-.28.19-.42.02-.05.04-.09.06-.14-.02,0-.03-.01-.04-.02-.02.05-.03.09-.05.14h0Zm-4.07,7.46h-.07c0-.07,0-.14,0-.21v-2.79h-.74v3.96s.05.02.07.02c.22,0,.44,0,.67,0h.99v-.93s-.02-.02-.03-.04h-.88Zm2.03-2.61s.01-.03.02-.04c-.01,0-.02,0-.03,0h-.33c-.1.24-.2.46-.31.7h.25c.14-.22.27-.44.4-.65Zm-12.74.06c0,.53,0,1.07,0,1.6,0,.03.02.05.03.08,0,.04-.03.08-.03.12v1.64s.01.06.02.08h.7s.01-.05.01-.06v-1.46s0-.06,0-.09c-.05-.15-.11-.3-.17-.45,0-.02-.05-.03-.07-.04.02-.04.03-.08.01-.13-.16-.43-.31-.87-.46-1.3,0-.02-.01-.04-.02-.06,0,0-.01,0-.02,0,0,.02,0,.05,0,.07h0Zm8.83,3.52h.86v-.97h-.9v.93s.02.02.04.03Zm4.92,0s.02-.02.04-.03v-.91c-.1-.04-.16-.11-.16-.22v-.2h-.75c.01.32-.03.61.04.91.06.25.28.45.55.46.1,0,.19,0,.28,0h0Zm-12.31-2.67v.08c-.08.07-.12.15-.04.25-.02,0-.04,0-.07,0-.01-.03-.03-.05-.04-.08-.01-.05-.04-.05-.08-.04h0s0-.03,0-.03c.05-.07,0-.13-.02-.18-.15-.43-.31-.86-.46-1.29h-.72c.02.07.03.13.05.18.08.24.17.49.25.73.08.24.16.48.25.71.02.04.07.08.1.11,0,0,0,0,0,.01,0,0,0,.02,0,.02-.05.08,0,.16.02.23.09.28.19.56.29.83.12.34.25.67.38,1.03.03-.06.06-.1.08-.14.09-.24.18-.49.26-.73.02-.07.03-.15.04-.23.02-.03.03-.06.05-.09h.03s.05,0,.08,0c0,.43,0,.86.01,1.29.25,0,.48,0,.72,0v-2.46s0-.02-.01-.03h0c0-.24,0-.47,0-.71v-.76h-.73c-.07.19-.14.36-.2.54-.08.24-.16.49-.24.74h0Zm-5.14-.3q.15.02.16.15c0,.09,0,.17,0,.26h.75c-.02-.29,0-.57-.05-.85-.06-.37-.23-.54-.6-.57-.09,0-.18,0-.27,0h-.09c-.09,0-.18,0-.27,0-.25,0-.47.13-.57.45-.05.15-.05.28-.05.43,0,.73,0,1.46,0,2.19,0,.17,0,.33.05.5.08.22.28.4.51.41.11,0,.22,0,.32,0h.09c.1,0,.2,0,.3,0,.24,0,.41-.14.5-.34.06-.14.09-.31.1-.47.01-.5,0-1,0-1.5,0-.05,0-.1,0-.15h-.98v.95c.09.01.17.02.24.03v.45c-.06,0-.1,0-.14.01h-.1c-.09,0-.14-.02-.14-.12,0-.6,0-1.2,0-1.8.01-.01.02-.02.03-.03h.1s.07-.01.1-.01Zm2.32-.07s-.03.03-.04.04c-.01-.01-.02-.02-.03-.04-.11-.3-.21-.6-.32-.9-.01-.01-.02-.02-.03-.03h-.79c.02.07.03.13.05.18.22.59.44,1.19.67,1.77.06.16.1.31.1.48,0,.5,0,1,0,1.5.01.01.02.02.04.03h.69v-1.64c0-.12,0-.24-.04-.36.1,0,.14-.05.17-.15.12-.34.26-.66.39-1,.1-.26.19-.52.29-.78,0,0,.02-.02.02-.03,0,0-.02,0-.03,0-.23,0-.47,0-.7-.01-.11,0-.15.04-.18.14-.04.16-.11.3-.16.46-.04.11-.07.23-.1.34h0Zm-2.53-11.07s.1.09.14.13c.01-.01.02-.02.03-.03-.04-.05-.08-.1-.12-.15-.18-.19-.38-.19-.51,0-.12.18-.2.39-.21.6-.02.46-.02.91.07,1.37.1.52.27,1.01.54,1.47.08.13.17.24.28.34.1.09.23.16.36.11.13-.05.21-.15.23-.3,0-.05.02-.1.03-.14,0-.06,0-.11.02-.17-.01,0-.02,0-.03,0-.02.06-.04.11-.06.17-.01.02-.02.04-.03.06-.08.2-.24.23-.38.07-.07-.08-.12-.19-.17-.28-.15-.26-.22-.55-.31-.83-.07-.22-.1-.45-.15-.68-.03-.17-.06-.33-.08-.5-.02-.17-.02-.35-.02-.52,0-.22-.03-.45.08-.66.05-.1.1-.13.21-.1.04,0,.07.03.1.04h0Zm10.77,14.11c.1,0,.19,0,.29,0,.28-.01.49-.18.54-.45.03-.16.06-.33.06-.5,0-.96,0-1.91,0-2.87,0-.05,0-.1-.01-.14h-.73v2.82c0,.09-.04.14-.14.13h-.1c-.09,0-.15-.02-.14-.12,0-.04,0-.09,0-.13v-2.7h-.74s0,.09,0,.12v2.99c0,.16,0,.31.06.46.07.21.29.39.51.39.11,0,.22,0,.32,0h.09,0Zm1.11-1.88v1.87h.74v-.55c0-1.11,0-2.22,0-3.33,0-.02,0-.05-.02-.07h-.73v2.09h0Zm-3.36-2.06c0,.16,0,.32,0,.49v.48c.08,0,.15-.01.2,0,.04.02.11.06.11.1,0,.12.04.24-.04.35-.08,0-.17.01-.26.02v1.01c.05,0,.1,0,.14,0,.1,0,.16.05.16.14,0,.11,0,.22,0,.34-.12,0-.21.01-.31.02v.96s.02.02.04.03c.11,0,.23,0,.34,0,.32.03.55-.19.61-.45.1-.42.06-.84.03-1.26-.01-.16-.09-.33,0-.49,0,0,0-.01,0-.02,0-.36.02-.71,0-1.07,0-.14-.07-.28-.12-.42-.05-.14-.17-.22-.32-.24-.19-.02-.38-.02-.56-.03-.01.01-.02.02-.04.03h0Zm9.18,0s-.02-.02-.04-.03c-.1,0-.2,0-.3,0-.08,0-.17.03-.24.07-.25.14-.31.39-.32.64-.02.34,0,.67,0,1.01,0,.11.02.23.05.34.1.26.24.42.54.43h.38c.13,0,.15.02.15.16,0,.04,0,.09,0,.13.02.11-.02.19-.13.21v.97c.19.01.36.03.53-.06.22-.12.3-.33.3-.57.07-.02.09-.06.03-.12v-1.01c.06-.05.02-.07-.03-.08,0-.04,0-.08,0-.11,0-.23-.14-.42-.37-.48-.09-.03-.2-.04-.29-.04-.13,0-.26,0-.4,0v-.47c.05-.03.1-.05.15-.08v-.92h0Zm.12-8.6c.08-.02.09-.06.03-.12-.01-.14-.01-.28-.04-.42-.01-.06-.07-.12-.12-.14-.07-.03-.16-.03-.23-.04-.42-.09-.84-.19-1.27-.28-.29-.06-.59-.11-.88-.16-.18-.03-.35-.06-.53-.08-.23-.04-.45-.07-.68-.1-.14-.02-.27-.02-.41-.04-.23-.03-.45-.07-.67-.11-.01-.22.02-.44.07-.66.35-1.5,1.26-2.52,2.69-3.1.26-.1.51-.23.72-.41.19-.16.36-.35.49-.57-.23-.1-.44-.2-.67-.3.12-.02.2-.04.28-.05.44-.04.87-.08,1.31-.12.33-.03.65-.05.98-.08.34-.03.68-.08,1.02-.1.51-.03.99-.16,1.43-.41.09-.05.18-.1.25-.18.95-.95.99-2.47.09-3.48-.02-.02-.04-.04-.06-.06,0,.02,0,.04-.01.06.06.24.03.49-.03.72-.14.51-.61.88-1.17.93-.29.03-.58.06-.87.07-.95.04-1.89.09-2.83.1-.82,0-1.64-.03-2.45-.06-.43-.01-.86-.05-1.29-.07h-.09s.02.03.04.05c.3.19.59.38.91.58-.54.33-1.05.64-1.6.98.23.13.43.24.63.35.2.11.4.22.6.33.19.11.4.2.59.34-.58.35-1.15.65-1.74.91-.59.26-1.19.5-1.8.75.25.15.5.29.75.44-.04.07-.07.12-.1.18-.23.39-.35.8-.37,1.25-.02.39.06.76.19,1.12,0,.02.02.04.02.06,0,0,.02,0,.03-.01,0-.01-.02-.03-.02-.04.04-.35.08-.7.15-1.05.05-.26.19-.44.44-.52.26-.08.52-.14.79-.2.1-.02.21-.02.33-.04v1.42s-.02,0-.03,0c-.13-.1-.18-.28-.37-.37v3.14c0,.16.04.33-.02.46-.06.15-.22.26-.33.38-.06.07-.14.14-.23.24.02-.34.03-.64.05-.93,0-.12-.01-.23-.08-.34-.26-.46-.52-.92-.77-1.38-.01,0-.03,0-.04,0v1.6c-.06.03-.09.04-.12.06-.53.2-1.07.3-1.64.27-.41-.02-.78-.14-1.14-.33-.05-.03-.12-.05-.12-.13.01-.26.02-.52.05-.78.03-.23.09-.46.15-.73-.05.06-.09.09-.12.13-.35.47-.7.93-1.06,1.4-.05.06-.05.13-.04.19.04.24.1.49.14.73.01.08,0,.16,0,.28-.22-.22-.42-.42-.61-.61-.06-.06-.08-.13-.08-.22.02-.69.04-1.37.06-2.06.01-.42.02-.84.03-1.25v-.09s-.02,0-.03,0c-.02.03-.04.06-.05.09-.08.09-.15.17-.25.3-.03-.49-.05-.93-.08-1.37.3-.03.57-.02.83.06.27.08.46.23.54.5.11.35.22.7.33,1.07.09-.42.12-.83.09-1.25-.03-.42-.1-.83-.22-1.23.22-.14.42-.28.64-.43-.1-.05-.18-.09-.25-.12-.61-.24-1.23-.47-1.84-.71-.08-.03-.16-.08-.21-.15-.2-.26-.47-.44-.78-.55-.09-.03-.18-.06-.27-.1-.24-.1-.31-.27-.22-.51.06-.17.19-.28.35-.36.26-.13.54-.19.83-.19.16,0,.31,0,.49,0-.03-.09-.04-.16-.08-.22-.12-.22-.3-.37-.53-.45-.2-.07-.4-.08-.6-.07-.03,0-.07,0-.12,0,.16-.36.44-.59.77-.8-.06-.03-.09-.05-.12-.07-.29-.12-.59-.18-.9-.2-.46-.03-.9.04-1.32.22-.06.03-.13.04-.2.04-.36.01-.72.02-1.09.02-1.23,0-2.46.02-3.7.02-.4,0-.81-.03-1.2-.15-.43-.13-.69-.4-.78-.84-.02-.09-.03-.19-.03-.28,0-.2.02-.4.03-.61-.03.02-.06.04-.09.07-1.02.97-1.02,2.42-.18,3.41.38.45.87.67,1.44.71.72.05,1.45.05,2.17.08.42.02.83.05,1.25.07.36.02.72.03,1.08.04.08,0,.16.01.24.02,0,.01,0,.02,0,.04-.21.13-.42.25-.63.39.03.08.05.14.08.2.24.44.59.75,1.07.91,1.15.4,1.95,1.15,2.4,2.26.16.4.29.81.33,1.25-.13.01-.26.03-.39.04-.24.02-.47.04-.71.07-.27.03-.54.07-.81.11-.2.03-.4.05-.59.08-.32.06-.65.12-.97.18-.37.08-.74.16-1.11.24-.22.05-.44.1-.65.14-.12.02-.23.1-.24.22-.01.2-.03.4,0,.6.06.28.13.57.37.81.05,0,.12,0,.18-.02.35-.08.7-.16,1.05-.24.49-.1.99-.19,1.48-.28.49-.09.98-.18,1.47-.25.3-.04.61-.06.92-.08,0,.15,0,.29,0,.44-.03.43.04.83.19,1.23.3.81.87,1.35,1.72,1.59.16.04.26.1.34.25.16.32.44.49.81.48.18,0,.37,0,.55,0,.32,0,.65,0,.97.01.21,0,.39-.06.52-.22.07-.08.14-.17.18-.26.04-.1.11-.14.2-.18.46-.18.87-.44,1.21-.8.58-.63.84-1.39.86-2.22,0-.08,0-.15.01-.22.08.02.17.04.25.05.2.03.39.06.59.09.14.02.28.02.43.04.26.04.52.09.79.14.22.04.43.08.65.12s.43.09.65.14c.24.06.48.11.72.18.18.05.28.02.38-.14.14-.23.23-.47.23-.74h.03Zm6.74-.08c.01-.16.04-.32.04-.48.01-.58.02-1.15-.07-1.73-.05-.3-.11-.6-.21-.88-.11-.3-.31-.54-.66-.59-.13-.02-.26-.03-.39-.03-.07,0-.13,0-.15-.08-.04-.14-.07-.28-.12-.42-.11-.29-.24-.58-.49-.79-.21-.17-.44-.28-.72-.23-.12.02-.23.04-.31.05-.16-.25-.29-.5-.46-.71-.34-.42-.81-.6-1.35-.42-.31.11-.57.3-.8.52-.02.02-.03.05-.05.08.02,0,.03,0,.05,0l.05-.02c.24-.11.47-.08.7.03.17.08.29.23.4.38.2.28.28.61.38.93.12.43.15.87.19,1.31.05.65,0,1.31-.04,1.96,0,.03,0,.06-.01.09-.02.11-.04.23-.06.34-.02.15-.02.31-.04.46-.04.28-.1.56-.15.84-.06.33-.12.66-.2.98-.1.4-.22.79-.34,1.17-.09.28-.18.56-.29.84-.21.53-.43,1.06-.73,1.55-.28.47-.59.92-1.05,1.25-.22.16-.46.27-.75.22-.05,0-.1,0-.15,0,.14.27.39.42.64.55.04.02.08.04.12.04.21.02.43.02.63-.05.22-.08.43-.18.61-.34.09-.08.12-.08.21.02.08.08.15.15.23.22.17.16.38.2.61.18.22-.02.4-.13.57-.25.24-.17.45-.36.61-.6.04-.06.1-.1.16-.16.03.02.05.04.07.05.24.31.52.37.85.18.03-.02.06-.04.09-.06.25-.18.42-.42.6-.66.39-.55.65-1.17.88-1.79.16-.44.31-.88.42-1.34.07-.27.13-.54.19-.82.05-.25.07-.51.12-.76.06-.3.11-.6.12-.91.07-.02.09-.06.03-.12h0Zm-16.87,8.64v3.96h.72v-3.96h-.72Zm10.97,1.36c0-.31.03-.6-.05-.89-.04-.12-.1-.27-.2-.34-.17-.14-.39-.17-.62-.12v.98c.14,0,.14.09.14.19,0,.06,0,.12,0,.18h.73,0Zm5.97-8.31c.1-.01.18-.02.26-.04,0,.01.02.03.01.05-.04.28-.11.55-.23.8-.05.1-.09.22-.25.2-.02,0-.04.04-.06.06.15.1.16.11.25,0,.07-.08.13-.18.17-.28.11-.24.19-.5.22-.76.03-.24.08-.49,0-.73-.05-.17-.06-.19-.26-.17-.04.28-.08.56-.13.86h0Zm-31.49-.89c-.06.02-.14.02-.15.04-.03.08-.13.11-.12.22.01.3,0,.59.08.88.08.28.14.57.33.8.1.12.14.13.23.02-.07-.06-.16-.1-.2-.18-.16-.3-.28-.61-.3-.96.1.03.18.08.28,0-.04-.27-.09-.53-.14-.84h0Zm19.16-3.5s0,0,0,.01,0,0,0,.01c0,0,0,0,0-.01s0,0,0-.01Zm6.49-2.99s0-.01-.01-.01,0,0-.01,0c0,0,0,.01.01.01s0,0,.01,0Z"/><path class="g" d="m24.34,22.05c0,.08-.01.15-.01.22-.02.84-.28,1.6-.86,2.22-.34.36-.74.62-1.21.8-.1.04-.16.08-.2.18-.04.1-.11.18-.18.26-.14.16-.32.22-.52.22-.32,0-.65-.01-.97-.01-.18,0-.37,0-.55,0-.38.02-.65-.16-.81-.48-.08-.15-.18-.21-.34-.25-.84-.24-1.42-.78-1.72-1.59-.15-.4-.22-.81-.19-1.23,0-.15,0-.29,0-.44.01-.05.02-.1.04-.14.01-.22.02-.45.03-.67,0-.1,0-.2,0-.3-.02-.16-.04-.33-.07-.49-.04-.43-.17-.85-.33-1.25-.45-1.11-1.25-1.86-2.4-2.26-.48-.16-.83-.47-1.07-.91-.03-.06-.05-.12-.08-.2.22-.13.43-.26.63-.39,0-.01,0-.02,0-.04-.08,0-.16-.02-.24-.02-.36-.02-.72-.03-1.08-.04-.42-.02-.83-.06-1.25-.07-.72-.03-1.45-.04-2.17-.08-.57-.04-1.06-.26-1.44-.71-.84-.99-.83-2.45.18-3.41.03-.02.06-.04.09-.07-.01.21-.02.41-.03.61,0,.09.01.19.03.28.09.44.35.71.78.84.39.12.8.15,1.2.15,1.23,0,2.46,0,3.7-.02.36,0,.72-.01,1.09-.02.07,0,.14-.02.2-.04.42-.18.86-.26,1.32-.22.31.02.61.08.9.2.03.01.06.03.12.07-.33.21-.61.43-.77.8h.12c.2-.01.41,0,.6.07.24.08.42.23.53.45.03.06.04.12.08.22h-.49c-.29,0-.57.06-.83.19-.16.08-.28.19-.35.36-.09.24-.02.42.22.51.09.04.18.07.27.1.31.11.58.28.78.55.05.06.13.12.21.15.61.24,1.23.47,1.84.71.08.03.15.07.25.12-.23.15-.43.29-.64.43.12.4.19.81.22,1.23.02.42,0,.83-.09,1.25-.12-.37-.23-.72-.33-1.07-.08-.27-.27-.43-.54-.5-.27-.07-.53-.08-.83-.06.02.44.05.88.08,1.37.1-.12.18-.21.25-.3.03,0,.05,0,.08,0,0,.42-.02.84-.03,1.25-.02.69-.04,1.37-.06,2.06,0,.09.02.16.08.22.2.19.39.39.61.61,0-.12.01-.2,0-.28-.04-.25-.1-.49-.14-.73-.01-.06-.01-.13.04-.19.36-.46.71-.93,1.06-1.4.03-.04.06-.07.12-.13-.06.26-.12.49-.15.73-.03.26-.04.52-.05.78,0,.08.07.1.12.13.36.19.73.31,1.14.33.57.03,1.11-.06,1.64-.27.04-.01.07-.03.12-.06v-1.6s.03,0,.04,0c.26.46.51.92.77,1.38.06.11.08.22.08.34-.02.29-.04.59-.05.93.1-.1.17-.16.23-.24.12-.12.27-.23.33-.38.06-.13.02-.31.02-.46v-3.14c.19.09.24.28.37.37,0,0,.02.02.02.02v-.03s0-1.42,0-1.42c-.12.01-.22.01-.33.04-.26.06-.53.12-.79.2-.25.08-.38.26-.44.52-.07.35-.11.7-.15,1.05,0,0-.02,0-.03,0-.14-.36-.21-.73-.19-1.12.02-.44.14-.86.37-1.25.03-.05.06-.11.1-.18-.25-.15-.49-.29-.75-.44.61-.26,1.21-.49,1.8-.75.59-.26,1.16-.56,1.74-.91-.2-.14-.4-.23-.59-.34-.2-.11-.4-.22-.6-.33-.2-.11-.4-.22-.63-.35.55-.33,1.06-.65,1.6-.98-.32-.21-.61-.4-.91-.58.02-.02.03-.03.05-.05.43.02.86.06,1.29.07.82.03,1.64.06,2.45.06.95,0,1.89-.06,2.83-.1.29-.01.58-.05.87-.07.56-.05,1.03-.42,1.17-.93.07-.24.09-.48.03-.72h.07c.9,1.01.86,2.53-.09,3.48-.07.07-.16.12-.25.18-.44.26-.92.39-1.43.41-.34.02-.68.07-1.02.1-.33.03-.65.05-.98.08-.44.04-.87.08-1.31.12-.08,0-.16.03-.28.05.24.11.44.2.67.3-.13.23-.3.41-.49.57-.22.18-.46.31-.72.41-1.44.58-2.35,1.6-2.69,3.1-.05.22-.08.44-.07.66v.72s.02.04.04.06c.03.22.06.45.08.67,0,.06,0,.11,0,.17h-.03Zm-2.39,2.24c.18-.42.26-.85.2-1.32-.43.08-.85.18-1.28.22-.44.03-.88,0-1.32,0,.25.23.53.37.89.37.28,0,.56,0,.84,0,.17,0,.33-.02.51-.03.02.19.04.38.06.56,0,.05.03.1.04.16,0,.04,0,.09.01.13h.03s.02-.04.02-.06h0Zm2.05-7.42c-.42.08-.77.24-1.15.37.12.14.21.26.31.37.02.03.06.06.09.06.15-.03.29-.07.44-.1.02,0,.05-.02.06-.04.08-.2.16-.41.26-.65h0Zm-5.83.38c-.38-.14-.74-.26-1.1-.39,0,.04,0,.07,0,.09.08.2.16.41.25.61.02.04.07.07.12.07.13,0,.27,0,.4,0,.03,0,.08-.02.1-.04.08-.1.15-.21.24-.35h0Z"/><path class="p" d="m10.26,16.14c-.08-.02-.15-.05-.23-.07-.35-.07-.63.06-.83.33-.27.36-.42.77-.49,1.21-.05.29-.12.57-.15.86-.03.25-.01.51-.01.77,0,.37-.01.74.01,1.11.02.34.07.67.11,1.01.02.22.04.44.08.66.04.23.08.46.13.68.06.28.12.56.18.84.02.1.05.2.08.3.15.47.29.95.46,1.42.26.76.61,1.49,1.07,2.16.23.34.5.63.83.88.23.17.48.22.75.18.03,0,.06,0,.1,0,0,0,.02.02.02.02-.16.15-.3.32-.48.44-.13.09-.31.12-.47.14-.38.06-.68-.14-.98-.33-.07-.04-.13-.09-.19-.13-.12.11-.22.22-.34.31-.34.26-.69.22-1.03.02-.31-.18-.56-.44-.78-.72-.04-.05-.07-.1-.11-.16-.11.11-.18.19-.26.25-.2.14-.4.21-.72-.02-.27-.18-.46-.43-.65-.69-.26-.38-.47-.78-.65-1.19-.2-.45-.37-.91-.49-1.38-.1-.4-.23-.79-.32-1.19-.08-.32-.12-.65-.17-.97-.04-.24-.08-.48-.11-.72-.01-.08,0-.16,0-.24-.07-.63-.05-1.27-.03-1.91,0-.34.08-.69.19-1.01.05-.15.1-.3.18-.44.17-.28.42-.39.73-.4.1,0,.2,0,.31,0,.07-.2.14-.41.22-.61.13-.33.31-.62.62-.81.19-.11.4-.15.63-.08.08.03.17.02.23.03.14-.23.24-.45.39-.64.21-.27.46-.5.83-.55.27-.04.52.04.76.15.24.1.44.26.62.44,0,.02,0,.04,0,.06h0Zm-2.79,2.79c-.06.06-.04.12.02.19.02-.05.04-.1.06-.15.01,0,.02-.01.03-.02.21-.19.38-.2.6-.02.03.02.07.02.12.04.02-.27.02-.52.05-.76.03-.26.09-.51.15-.77.09-.41.23-.79.49-1.13.15-.19.31-.37.57-.41.06,0,.12-.01.2-.02-.13-.15-.3-.18-.46-.21-.4-.08-.76.02-1.04.35-.18.22-.3.47-.4.72-.16.41-.24.84-.31,1.27-.05.3-.06.61-.08.92h0Zm-.36,7.25s-.02.02-.02.03c.04.06.08.12.11.19.29.56.6,1.11.99,1.62.21.27.44.51.73.69.34.22.72.2,1.02-.06.12-.1.12-.15.02-.26-.17-.2-.34-.39-.52-.59-.32-.37-.59-.77-.82-1.21-.24-.47-.45-.95-.58-1.46-.08-.29-.18-.57-.23-.86-.05-.28-.13-.55-.18-.83-.09-.46-.2-.91-.26-1.37-.03-.24-.09-.47-.12-.7-.02-.22-.03-.44-.04-.67-.03-.67-.04-1.33.04-2,.03-.27.06-.53.12-.8.07-.28.17-.55.26-.83-.21-.2-.55-.18-.76-.05-.19.11-.25.3-.34.47-.13.26-.19.54-.25.82-.06.3-.12.59-.17.89,0,.04,0,.09.02.13.12-.17.27-.25.47-.23.16.02.3.16.3.32,0,.11-.01.22-.01.34,0,.58.02,1.17.09,1.75.03.22.04.45.08.67.07.38.15.75.23,1.12.07.33.11.67.2,1,.15.54.32,1.07.49,1.61.04.14.02.21-.09.28-.04.02-.09.04-.14.06-.2.07-.4.1-.57-.06-.02-.01-.04-.02-.06-.02h0Zm-1.21.26s-.02.02-.03.03c.12.27.25.53.42.77.23.33.46.68.8.92.15.11.29.11.46.06.16-.05.25-.18.37-.31-.05-.07-.09-.13-.14-.2-.31-.41-.54-.86-.76-1.32-.17-.34-.31-.7-.42-1.07-.07-.23-.15-.46-.22-.69-.06-.19-.12-.38-.16-.58-.08-.35-.15-.71-.21-1.06-.05-.27-.11-.54-.13-.81-.04-.64-.05-1.29-.07-1.93,0-.12-.01-.25,0-.38.02-.21.05-.41.07-.62.02-.15.04-.3.07-.45.02-.12.03-.25.05-.38-.06-.02-.1-.04-.14-.04-.23-.04-.45-.03-.64.13-.29.24-.46.79-.42,1.23.04-.05.05-.08.08-.11.07-.07.14-.16.23-.21.1-.07.22-.05.32,0,.1.05.13.14.12.25-.02.19-.04.38-.04.57,0,.27,0,.54.02.81,0,.24,0,.47.03.71.02.21.04.42.07.62.03.22.05.44.09.65.04.21.1.41.14.62.1.5.22.99.37,1.47.11.35.24.69.37,1.04.06.17.03.3-.09.36-.14.07-.28.1-.42,0-.05-.04-.1-.06-.16-.1h0Zm6.01,2.24c-.11-.02-.19-.02-.26-.06-.24-.14-.49-.26-.67-.46-.16-.18-.32-.37-.46-.56-.45-.59-.75-1.26-1.03-1.94-.08.09-.15.18-.23.26-.09.1-.22.09-.34.08-.11-.02-.22-.07-.34-.11.04.1.07.18.11.26.2.42.45.82.72,1.2.33.47.7.89,1.16,1.24.22.16.46.28.73.33.25.04.44-.05.63-.23h0Z"/><path class="p" d="m35.73,21.97c0,.31-.06.61-.12.91-.05.25-.07.51-.12.76-.05.28-.12.55-.19.82-.11.46-.26.9-.42,1.34-.23.63-.49,1.24-.88,1.79-.17.24-.35.48-.6.66-.03.02-.06.04-.09.06-.33.2-.61.14-.85-.18-.01-.02-.04-.03-.07-.05-.06.05-.12.1-.16.16-.17.24-.38.43-.61.6-.17.12-.35.23-.57.25-.23.02-.43-.02-.61-.18-.08-.07-.16-.15-.23-.22-.09-.1-.12-.1-.21-.02-.18.16-.39.26-.61.34-.21.07-.42.07-.63.05-.04,0-.08-.02-.12-.04-.26-.13-.5-.28-.64-.55.05,0,.1,0,.15,0,.29.05.53-.06.75-.22.46-.33.76-.77,1.05-1.25.3-.49.52-1.02.73-1.55.11-.28.2-.56.29-.84.12-.39.24-.78.34-1.17.08-.32.14-.65.2-.98.05-.28.11-.56.15-.84.02-.15.02-.31.04-.46.01-.12.04-.23.06-.34,0-.03.01-.06.01-.09.05-.65.09-1.31.04-1.96-.04-.44-.07-.88-.19-1.31-.09-.32-.18-.65-.38-.93-.11-.15-.22-.3-.4-.38-.23-.11-.46-.13-.7-.03l-.05.02s0-.05,0-.07c.24-.22.49-.41.8-.52.54-.19,1.01,0,1.35.42.17.21.29.45.46.71.08-.01.2-.03.31-.05.28-.05.51.05.72.23.25.21.38.5.49.79.05.14.08.28.12.42.02.08.08.08.15.08.13,0,.26.01.39.03.35.05.55.29.66.59.1.28.16.58.21.88.09.57.08,1.15.07,1.73,0,.16-.02.32-.04.48-.01.04-.02.08-.03.12h0Zm-.99.08s.08-.03.03-.08c.08-.51.09-1.03.08-1.54,0-.27-.03-.53-.04-.8,0-.13.06-.22.19-.24.08-.01.16,0,.24.03.14.04.2.18.3.27.01,0,.02.02.04.03,0-.01,0-.02,0-.03-.02-.27-.09-.52-.18-.78-.16-.47-.54-.56-.86-.53-.07,0-.14.04-.2.09-.02.02.02.1.03.15,0,.02,0,.04,0,.06.04.2.04.4.08.6.07.32.08.64.09.96.02.36-.01.72-.03,1.08,0,.23-.02.46-.04.69-.01.15-.02.3-.05.44-.03.19-.07.37-.1.56-.05.26-.1.52-.15.78-.03.16-.07.32-.12.47-.09.32-.16.63-.27.94-.1.3-.23.6-.34.9-.24.66-.6,1.27-1.06,1.86.05.03.1.07.15.1.06.04.11.08.17.12.18.12.4.13.61-.08.22-.21.43-.42.6-.67.18-.28.38-.55.5-.87.01-.03,0-.07,0-.12-.07.04-.12.06-.16.09-.08.08-.19.07-.29.07-.16-.01-.3-.24-.24-.38.2-.48.38-.97.51-1.48.15-.59.32-1.18.39-1.79.04-.3.12-.59.11-.89h0Zm-1.65-.9s-.02.05-.02.08c-.03.28-.04.56-.08.84-.04.28-.09.56-.15.84-.07.36-.14.73-.23,1.09-.1.4-.22.79-.33,1.19-.14.52-.34,1.02-.6,1.49-.29.53-.64,1.01-1.06,1.44-.12.12-.23.26-.34.39.06.07.12.13.18.18.08.06.16.13.25.15.26.04.51,0,.74-.14.34-.21.59-.5.81-.82.27-.39.51-.8.75-1.21.08-.14.15-.29.24-.46-.07.02-.11.02-.14.04-.18.13-.37.11-.56.02-.18-.09-.25-.23-.19-.37.16-.35.26-.72.36-1.08.11-.4.19-.81.28-1.22.04-.2.08-.41.12-.61.05-.24.11-.47.15-.71.04-.2.05-.41.07-.62.04-.3.09-.61.11-.91.02-.42.02-.85.02-1.27,0-.22.17-.38.39-.35.14.02.24.09.31.21.02.02.04.05.06.07,0-.02,0-.05.01-.07-.02-.17-.04-.33-.07-.5-.04-.22-.1-.45-.15-.67-.06-.29-.14-.57-.29-.83-.19-.32-.49-.47-.86-.34-.16.06-.16.06-.11.22.1.38.22.75.28,1.13.07.42.1.85.13,1.27.02.27,0,.55-.01.83-.01.24-.04.48-.07.73h0Zm-2.24,4.49c-.07.15-.13.29-.19.42-.13.28-.24.58-.39.85-.22.4-.48.77-.8,1.11-.26.27-.53.5-.89.61-.04.01-.08.04-.14.06.2.18.4.27.65.22.23-.05.44-.16.63-.28.37-.24.67-.56.94-.9.38-.47.7-.99.98-1.54.05-.09.08-.19.13-.33-.2.09-.35.18-.54.14-.2-.04-.27-.22-.39-.36h0Zm2.01-6.54c-.02-.23-.03-.43-.04-.63,0-.1-.01-.21-.03-.31-.04-.25-.1-.5-.15-.75-.08-.42-.22-.83-.44-1.19-.08-.14-.2-.28-.34-.37-.27-.17-.57-.24-.89-.17-.14.03-.3.07-.38.2.14.04.28.06.4.12.19.09.31.26.43.44.26.39.36.84.46,1.28.06.28.08.57.12.85.02.13.04.26.06.4.44-.24.61-.14.81.14h0Zm-.8-.11s0,0-.01-.01c0,0,0,0-.01.01,0,0,.01,0,.02.01,0,0,0,0,0-.01h0Z"/><path class="ab" d="m16.77,20.35c.02.16.05.33.07.49.01.1,0,.2,0,.3-.44.06-.88.08-1.31.14-.38.06-.77.08-1.15.16-.33.07-.67.13-1,.2-.24.05-.49.11-.73.16-.28.06-.56.1-.84.16-.14.03-.25.06-.35-.09-.02.22.08.58.21.7.03.03.09.04.13.05.14.02.27-.04.4-.07.47-.11.95-.2,1.42-.29.44-.08.87-.16,1.31-.23.29-.05.58-.08.87-.13.33-.06.66-.12,1-.1-.01.05-.02.1-.04.14-.31.03-.61.04-.92.08-.49.07-.98.16-1.47.25-.49.09-.99.18-1.48.28-.35.07-.7.16-1.05.24-.07.02-.14.02-.18.02-.24-.23-.31-.52-.37-.81-.04-.19-.02-.4,0-.6,0-.11.12-.19.24-.22.22-.04.44-.09.65-.14.37-.08.74-.16,1.11-.24.32-.06.65-.13.97-.18.2-.03.4-.06.59-.08.27-.04.54-.08.81-.11.24-.03.47-.05.71-.07.13-.01.26-.03.39-.04h0Z"/><path class="ab" d="m24.34,22.05c0-.06,0-.11,0-.17.05.02.1.04.16.04.23.03.46.04.68.08.35.07.7.12,1.06.18.28.05.55.12.83.18.46.1.92.19,1.37.29.1.02.17-.01.23-.08.14-.19.21-.41.22-.63-.11.02-.22.07-.31.05-.3-.06-.6-.14-.9-.2-.25-.06-.51-.12-.76-.17-.18-.04-.37-.06-.56-.1-.32-.06-.63-.11-.95-.16-.12-.02-.25-.02-.37-.04-.26-.04-.51-.08-.77-.12-.01-.02-.04-.04-.04-.06,0-.24,0-.48,0-.72.22.04.45.08.67.11.14.02.27.02.41.04.23.03.45.07.68.1.18.03.36.05.53.08.3.05.59.1.88.16.42.09.84.19,1.27.28.08.02.16.01.23.04.05.02.11.09.12.14.03.14.03.28.04.42l-.03.12c0,.27-.09.51-.23.74-.1.17-.2.19-.38.14-.24-.07-.48-.12-.72-.18-.22-.05-.43-.1-.65-.14s-.43-.08-.65-.12c-.26-.05-.52-.1-.79-.14-.14-.02-.28-.03-.43-.04-.2-.03-.39-.06-.59-.09-.08-.01-.17-.03-.25-.05h0Z"/><path class="i" d="m29.82,33.83c0,.24-.08.45-.3.57-.16.09-.34.07-.53.06v-.97c.11-.02.15-.1.13-.21,0-.04,0-.09,0-.13,0-.13-.02-.15-.15-.16-.13,0-.25,0-.38,0-.3,0-.44-.16-.54-.43-.04-.1-.05-.22-.05-.34,0-.34-.02-.67,0-1.01.01-.25.07-.5.32-.64.07-.04.16-.06.24-.07.1-.01.2,0,.3,0,.01.01.02.02.04.03v.92s-.09.05-.15.08v.47c.14,0,.27,0,.4,0,.1,0,.2.02.29.04.23.07.36.25.37.48,0,.04,0,.08,0,.11,0,.03.02.05.03.08v1.01s-.02.08-.03.12h0Z"/><path class="i" d="m19.75,30.5c.19.01.38.02.56.03.15.02.26.1.32.24.05.14.12.28.12.42.01.36,0,.71,0,1.07v.02c-.09.16-.02.32,0,.49.03.42.06.84-.03,1.26-.06.26-.3.48-.61.45-.11-.01-.23,0-.34,0-.01-.01-.02-.02-.04-.03v-.96c.1,0,.19-.01.31-.02,0-.12,0-.23,0-.34,0-.09-.06-.15-.16-.14-.04,0-.09,0-.14,0v-1.01c.09,0,.18-.01.26-.02.08-.12.05-.24.04-.35,0-.04-.07-.08-.11-.1-.05-.02-.11,0-.2,0,0-.17,0-.32,0-.48,0-.16,0-.32,0-.49.01-.01.02-.02.04-.03h0Z"/><path class="i" d="m11.31,31.5h-.1s-.02.03-.03.04c0,.6,0,1.2,0,1.8,0,.1.05.13.14.12,0,.34,0,.67,0,1-.11,0-.22,0-.32,0-.23,0-.44-.19-.51-.41-.06-.16-.05-.33-.05-.5v-2.19c0-.15,0-.28.05-.43.1-.32.33-.44.57-.45.09,0,.18,0,.27,0,0,.34,0,.67,0,1h0Z"/><path class="f" d="m21.88,34.47c-.11,0-.22,0-.32,0-.22,0-.44-.18-.51-.39-.05-.15-.06-.3-.06-.46v-2.99s0-.07,0-.12h.74v2.7s0,.09,0,.13c0,.1.05.13.14.12,0,.34,0,.67,0,1h0Z"/><path class="i" d="m13.34,30.53c.1.3.21.6.32.9,0,.02.02.03.03.04,0,.04.02.08.03.12.1.29.21.58.32.87h0c.05.12.05.24.04.36,0,.48,0,.96,0,1.44v.2h-.69s-.02-.02-.04-.03c0-.5-.01-1,0-1.5,0-.17-.04-.32-.1-.48-.23-.59-.45-1.18-.67-1.77-.02-.06-.03-.12-.05-.18h.79s.02.02.03.03h0Zm.54,3.04s.04,0,.06,0c.02-.02.04-.05.06-.07-.03,0-.06-.02-.09-.02-.02,0-.03.03-.05.05-.02-.03-.04-.05-.06-.08,0,0-.02,0-.02.01.02.05.04.09.07.14.02-.01.03-.02.05-.03h0Z"/><path class="f" d="m18.89,30.5h.72v3.96h-.72v-3.96Z"/><path class="i" d="m23.08,32.33v-1.82h.73s.02.04.02.07c0,1.11,0,2.22,0,3.33-.05,0-.1,0-.1.08s.04.08.1.08v.4h-.74v-1.75h0s0,0,0,0c.03-.02.05-.05.08-.07-.03-.02-.05-.03-.08-.05,0,0-.01,0-.02,0v-.18s.04-.03.06-.05l-.06-.04h0Zm.55.38c.02-.11.04-.22-.1-.32.03.12.05.21.07.31.01.07.02.14.03.2.03-.07.06-.14,0-.2h0Z"/><path class="i" d="m25.73,34.47c-.22,0-.44,0-.67,0-.02,0-.04,0-.07-.02v-1.74s.11,0,.1-.08c0-.03-.06-.04-.1-.06v-2.08h.74v2.79c0,.07,0,.14,0,.21h0s0,0,0,0c-.02.02-.04.03-.05.04.02.01.04.03.05.04v.34s-.1,0-.1.07c0,.07.04.09.1.09v.41h0Zm-.17-1.81c.06-.12-.04-.19-.1-.27.02.09.04.19.06.28.01.05.03.1.04.15,0,0,.02,0,.03,0,0-.05-.02-.1-.03-.16h0Z"/><path class="f" d="m21.97,33.46c.1,0,.14-.04.14-.13v-2.82h.73s.01.1.01.14c0,.96,0,1.91,0,2.87,0,.17-.03.33-.06.5-.05.27-.26.44-.54.45-.1,0-.19,0-.29,0,0-.34,0-.67,0-1h0Z"/><path class="i" d="m16.5,32.13c-.07-.1-.03-.18.04-.25.16,0,.26-.11.38-.19h0c.06,0,.13,0,.19-.02,0,0,.02.01.02.02.09.01.19.02.28.04.01.01.03.02.04.04h0s.05.08.08.11h0c.04.07.09.12.18.11,0,.01.01.02.01.03v2.46c-.24,0-.47,0-.72,0,0-.44,0-.86-.01-1.29,0-.05,0-.1,0-.15v-.06s-.02.04-.04.06c-.02.05-.03.1-.05.14h-.03c-.05-.13-.1-.26-.15-.4-.08-.22-.16-.44-.24-.66h0Z"/><path class="f" d="m11.41,33.46s.09,0,.14-.01v-.45c-.07,0-.15-.02-.24-.03v-.95h.98c0,.05,0,.1,0,.15,0,.5,0,1,0,1.5,0,.16-.03.32-.1.47-.09.2-.26.33-.5.34-.1,0-.2,0-.3,0,0-.34,0-.67,0-1h0Z"/><path class="f" d="m15.59,32.37s.07.02.07.04c.06.15.11.3.17.45,0,.03,0,.06,0,.09v1.46s0,.04-.01.06h-.7s-.02-.06-.02-.08v-1.64s.02-.08.03-.12c.1-.06.24-.06.31-.18h0c.06,0,.15.04.15-.07h0Z"/><path class="e" d="m29.09,20.31c.19-.22.4-.21.53.04.09.16.13.33.16.51.06.29.06.58.03.87,0,.03-.02.05-.03.08-.02.52-.16,1.01-.36,1.48-.09.21-.18.42-.33.59-.07.08-.15.16-.24.23-.21.16-.38.12-.5-.11-.05-.1-.07-.21-.06-.32h.03c.05.08.09.17.14.25.08.11.14.11.24.03.14-.12.22-.28.28-.44.1-.27.2-.55.27-.83.13-.49.23-.99.26-1.49.01-.24,0-.48-.05-.72-.04-.19-.15-.23-.33-.13-.02-.02-.03-.03-.05-.05h0Z"/><path class="e" d="m10.79,26.66c.16.29.36.55.58.79.12.13.27.25.43.32.14.06.32.05.46-.08.18-.18.27-.39.34-.62.2-.75.23-1.52.19-2.3-.02-.33-.04-.67-.08-1-.02-.22-.07-.44-.11-.67-.02-.1.01-.14.13-.15.04,0,.08,0,.12,0,.02.15.04.29.05.44.04.28.08.56.1.84.02.18.03.36.03.54,0,.38,0,.76-.02,1.14-.04.48-.12.96-.3,1.42-.08.2-.19.38-.37.52-.2.14-.41.13-.62.04-.19-.08-.32-.22-.44-.37-.21-.24-.4-.5-.52-.81.01-.02.03-.03.04-.04h0Z"/><path class="e" d="m12.04,23.77s-.02.1-.03.14c-.02.14-.11.25-.23.3-.14.05-.27-.02-.36-.11-.11-.1-.21-.22-.28-.34-.27-.46-.44-.95-.54-1.47-.09-.46-.08-.91-.07-1.37,0-.22.09-.42.21-.6.13-.2.33-.19.51,0-.02.02-.03.03-.05.05-.03-.01-.07-.03-.1-.04-.11-.03-.16,0-.21.1-.11.21-.08.44-.08.66,0,.17,0,.35.02.52.02.17.05.34.08.5.04.23.08.46.15.68.09.28.16.57.31.83.06.1.1.2.17.28.14.17.3.14.38-.07,0-.02.02-.04.03-.06.03,0,.05,0,.08,0h0Z"/><path class="f" d="m31.27,18.58c-.04-.23-.07-.47-.12-.7-.07-.32-.15-.63-.35-.9-.2-.28-.51-.32-.77-.1-.25.21-.44.46-.61.73-.4.66-.69,1.36-.92,2.09-.11.35-.21.7-.32,1.07-.08-.02-.16-.04-.25-.06.07-.21.13-.41.19-.6.08-.25.16-.5.24-.74.26-.72.57-1.42,1.02-2.05.17-.24.35-.45.6-.61.4-.25.7-.13.92.18.19.27.29.58.31.91,0,.1.03.19.04.29.02.15.03.31.04.46-.01.01-.02.02-.03.04h0Z"/><path class="e" d="m29.43,27.01c-.12.17-.22.34-.35.5-.15.19-.33.34-.56.41-.29.09-.5,0-.68-.22-.21-.28-.32-.6-.38-.94-.04-.22-.09-.44-.12-.67-.02-.2-.01-.41-.01-.62,0-.44,0-.89,0-1.33,0-.18.05-.35.07-.53.02-.15.03-.31.04-.46,0-.22.01-.23.26-.2.02.08.04.16,0,.24,0,.01-.02.02-.02.03-.03.22-.07.44-.08.66-.03.7-.06,1.39-.04,2.09,0,.2.05.4.07.6.02.23.09.44.17.65.05.12.12.24.2.35.19.24.44.27.69.09.23-.16.42-.37.59-.6.02-.03.05-.06.07-.08.03,0,.06,0,.08.01h0Z"/><path class="f" d="m9.04,18.25c0-.44.1-.86.3-1.25.07-.14.18-.26.3-.34.14-.1.31-.1.47-.05.26.09.48.26.65.48.31.38.56.79.76,1.23.15.33.28.66.41,1,.1.27.19.54.28.81.05.17.1.34.14.51,0,.03,0,.06,0,.09-.07.02-.13.03-.2.05-.05-.13-.1-.25-.13-.38-.1-.46-.27-.9-.44-1.34-.14-.37-.31-.74-.49-1.09-.17-.34-.37-.67-.65-.94-.1-.09-.21-.18-.34-.23-.27-.1-.44-.01-.58.19-.14.2-.23.42-.29.65-.06.2-.08.41-.12.61h-.07Z"/><path class="b" d="m16.32,32.02s.07,0,.08.04c0,.03.03.05.04.08.05.17.09.33.15.49.08.22.17.43.26.64-.01.08-.02.16-.04.23-.08.24-.17.49-.26.73-.02.04-.04.08-.08.14-.13-.36-.26-.69-.38-1.03-.1-.28-.2-.55-.29-.83-.02-.07-.07-.15-.02-.23.18-.09.36-.18.53-.27h0Z"/><path class="b" d="m14.03,32.46h0s.08,0,.06-.05c-.12-.33-.24-.66-.36-.99.03-.11.06-.23.1-.34.05-.15.12-.3.16-.46.03-.1.08-.14.18-.14.23,0,.47,0,.7.01,0,.01,0,.02,0,.03-.1.26-.19.52-.29.78-.13.33-.27.66-.39,1-.03.1-.07.15-.17.15h0Z"/><path class="b" d="m15.78,32.26s-.09-.07-.1-.11c-.09-.24-.17-.47-.25-.71-.08-.24-.17-.49-.25-.73-.02-.06-.03-.11-.05-.18h.72c.16.43.31.86.46,1.29.02.06.08.12.02.18-.21.02-.37.16-.54.26h0Z"/><path class="i" d="m11.41,30.49c.09,0,.18,0,.27,0,.37.03.54.19.6.57.04.27.04.56.05.85h-.75c0-.09,0-.17,0-.26,0-.13,0-.13-.16-.15,0-.34,0-.67,0-1h0Z"/><path class="b" d="m17.14,31.69s-.02-.01-.02-.02c0-.08-.01-.11-.06-.08-.05.02-.09.07-.13.1h0c-.06.01-.12.03-.17.04-.07.02-.14.04-.21.06.08-.25.16-.49.24-.74.06-.18.13-.35.2-.54h.73v.68s-.04.03-.06.05c.02,0,.04.02.06.03,0,.24,0,.47,0,.71-.05-.06-.08-.13-.18-.11h0c0-.05,0-.11-.08-.11h0s.03-.09-.04-.11c-.08,0-.16-.01-.24-.01-.01,0-.02.03-.04.05h0Zm.4-.34l-.14.04c.07.04.11.01.14-.04,0,0,.01,0,.02,0,0,0,0,0,0-.01,0,0-.01.01-.02.02h0Zm-.35.16l.02.03s.06-.04.09-.06c0,0,0-.01,0-.02-.04.01-.07.02-.11.04h0Z"/><path class="i" d="m28.86,34.46c-.1,0-.19,0-.28,0-.26,0-.49-.21-.55-.46-.06-.3-.02-.59-.04-.91h.75v.2c0,.11.05.19.16.22v.91l-.04.03h0Z"/><path class="i" d="m29.86,31.86h-.73c0-.06,0-.12,0-.18,0-.1,0-.2-.14-.19v-.98c.23-.05.45-.02.62.12.1.08.17.22.2.34.08.28.05.58.05.89h0Z"/><path class="f" d="m23.91,34.43v-.93h.9v.97h-.86s-.02-.02-.04-.03Z"/><path class="f" d="m26.72,33.53v.93h-.9v-.93s.02-.02.03-.04h.84s.02.02.03.04h0Z"/><path class="b" d="m15.1,32.55c0-.53,0-1.07,0-1.6h.03c.15.43.3.86.46,1.29.02.06,0,.09-.01.13h0c-.06,0-.13,0-.15.08h0s-.09.03-.13.04c-.07.02-.14.04-.21.07h0Z"/><path class="e" d="m35.83,23.55c.04-.3.08-.58.13-.86.2-.02.22,0,.26.17.07.25.02.49,0,.73-.03.26-.11.52-.22.76-.04.1-.1.2-.17.28-.09.11-.1.1-.25,0,.02-.02.04-.06.06-.06.16.02.2-.1.25-.2.12-.25.19-.53.23-.8,0-.02,0-.03-.01-.05-.08.01-.16.02-.26.04h0Z"/><path class="e" d="m4.35,22.67c.05.3.1.57.14.84-.1.08-.18.03-.28,0,.02.35.14.66.3.96.04.07.13.12.2.18-.09.11-.13.1-.23-.02-.19-.24-.26-.52-.33-.8-.08-.29-.06-.59-.08-.88,0-.11.09-.14.12-.22,0-.02.08-.03.15-.04h0Z"/><path class="b" d="m27.84,30.88c-.13.22-.27.43-.4.65h-.25c.11-.24.21-.47.31-.7h.33s0,.03.01.05Z"/><path class="x" d="m16.84,33.28c-.09-.21-.18-.43-.26-.64-.06-.16-.1-.33-.15-.49.02,0,.04,0,.07,0,.08.22.16.44.24.66.05.13.1.26.15.4-.02.03-.03.06-.05.09h0Z"/><path class="x" d="m13.73,31.43c.12.33.24.66.36.99.02.06,0,.06-.06.05-.11-.29-.21-.58-.32-.87-.01-.04-.02-.08-.03-.12.02-.02.03-.03.04-.04h0Z"/><path class="x" d="m11.41,30.49c0,.34,0,.67,0,1h-.1c0-.34,0-.67,0-1h.09Z"/><path class="x" d="m11.41,33.46c0,.34,0,.67,0,1h-.09c0-.34,0-.67,0-1h.1,0Z"/><path class="x" d="m21.97,33.46c0,.34,0,.67,0,1h-.09c0-.34,0-.67,0-1h.1,0Z"/><path class="x" d="m25.82,33.53v.93h-.09v-.98h.01s.05,0,.07,0c0,.01,0,.02,0,.04h0Z"/><path class="k" d="m29.43,27.01s-.06,0-.08-.01c.1-.17.21-.35.31-.52.02,0,.04,0,.06,0-.1.18-.2.35-.29.53h0Z"/><path class="u" d="m15.78,32.26c.17-.1.33-.24.54-.26h0s0,.03,0,.03c-.18.09-.36.18-.53.27,0,0,0-.01,0-.02,0,0,0,0,0-.01h0Z"/><path class="aa" d="m29.73,26.48s-.04,0-.06,0c.07-.14.15-.29.22-.43.01,0,.02.01.04.02-.06.14-.13.28-.19.42h0Z"/><path class="d" d="m31.27,18.58s.02-.02.03-.04c.01.03.03.06.03.1,0,.18,0,.36,0,.54h-.03c-.01-.2-.02-.4-.04-.6h0Z"/><path class="d" d="m10.79,26.66s-.03.03-.04.04c-.07-.14-.13-.27-.2-.41,0,0,.01-.01.02-.02.07.13.15.25.22.38h0Z"/><path class="aa" d="m9.07,18.7c-.01.22-.03.44-.04.67h-.02v-.67h.06Z"/><path class="u" d="m16.55,31.8c.07-.02.14-.04.21-.06.06-.02.12-.03.17-.04-.12.08-.22.19-.38.19v-.08h0Z"/><path class="b" d="m9.07,18.7h-.06c.01-.15.02-.3.04-.45h.06c-.01.15-.03.3-.04.45Z"/><path class="u" d="m15.1,32.55c.07-.02.14-.04.21-.07.04-.01.09-.03.13-.04-.07.12-.2.13-.31.18,0-.03-.02-.05-.03-.08h0Z"/><path class="y" d="m10.5,26.21l-.15-.31s.02-.01.04-.02c.06.09.13.18.14.3,0,.01-.01.02-.02.02Z"/><path class="aa" d="m23.82,34.06c-.05,0-.1,0-.1-.08,0-.07.05-.07.1-.08v.16h0Z"/><path class="aa" d="m11.2,20.36s.03-.03.05-.05c.04.05.08.1.12.15-.01.01-.02.02-.03.03-.05-.04-.1-.09-.14-.13h0Z"/><path class="y" d="m24.99,32.58s.09.03.1.06c.02.07-.05.07-.1.08v-.14Z"/><path class="aa" d="m29.09,20.31s.03.03.05.05c-.04.04-.08.07-.12.11l-.02-.02s.06-.09.09-.13h0Z"/><path class="d" d="m12.04,23.77s-.05,0-.08,0c.02-.06.04-.11.06-.17.01,0,.02,0,.03,0,0,.06,0,.11-.02.17h0Z"/><path class="y" d="m31.31,19.19h.03v.28h-.03v-.27h0Z"/><path class="k" d="m17.54,31.88c.1-.02.13.06.18.11h0c-.09.01-.14-.04-.18-.11Z"/><path class="x" d="m17,33.04c0,.05,0,.1,0,.15-.03,0-.05,0-.08,0,.02-.05.03-.1.05-.14h.02s.02,0,.02,0h0Z"/><path class="y" d="m29.88,26.04s.03-.09.05-.14c.02,0,.03.01.04.02-.02.05-.04.09-.06.14-.01,0-.02-.01-.04-.02h0Z"/><path class="c" d="m29.82,33.83s.02-.08.03-.12c.06.06.04.09-.03.12Z"/><path class="v" d="m35.73,21.97s.02-.08.03-.12c.06.06.04.09-.03.12Z"/><path class="v" d="m29.02,21.93s.02-.08.03-.12c.06.06.04.09-.03.12Z"/><path class="l" d="m17.57,19.3s-.05,0-.08,0c.02-.03.04-.06.05-.09,0,0,.02,0,.03,0v.09Z"/><path class="k" d="m17.72,31.28s-.04-.02-.06-.03c.02-.02.04-.03.06-.05v.08Z"/><path class="c" d="m29.85,32.71s-.02-.05-.03-.08c.05.01.09.03.03.08Z"/><path class="r" d="m22.16,19.93s.02,0,.03,0c0,.01.02.03.02.04,0,0-.02,0-.03.01,0-.02-.02-.04-.02-.06h0Z"/><path class="v" d="m29.78,21.82s.02-.05.03-.08c.06.05.02.07-.03.08Z"/><path class="aa" d="m23.08,32.33l.06.04s-.04.03-.06.05v-.08h0Z"/><path class="l" d="m32.87,10.96h-.07s0-.04.01-.06c.02.02.04.04.06.06h0Z"/><path class="r" d="m24.14,12.66s-.03.03-.05.05c-.01-.02-.02-.03-.04-.05h.09Z"/><path class="d" d="m28.33,23.69h-.02s-.02,0-.02,0v-.11h.02s0,.07.01.1h0Z"/><path class="aa" d="m23.1,32.71h-.02v-.12s.01,0,.02,0v.12h0Z"/><path class="h" d="m10.26,16.14s0-.04,0-.06l.09.06s-.02.02-.03.03c-.02-.01-.04-.02-.05-.03Z"/><path class="d" d="m10.55,26.3s-.03-.06-.04-.09c.01,0,.02-.01.02-.02.01.03.02.06.04.09,0,0-.01.01-.02.02h0Z"/><path class="h" d="m30.08,16.07s0,.05,0,.07c-.02,0-.03,0-.05,0,.02-.02.03-.05.05-.08h0Z"/><path class="d" d="m28.86,34.46s.02-.02.04-.03c-.01.01-.02.02-.04.03Z"/><path class="k" d="m23.91,34.43s.02.02.04.03c-.01-.01-.02-.02-.04-.03Z"/><path class="k" d="m19.71,34.43s.02.02.04.03c-.01-.01-.02-.02-.04-.03Z"/><path class="aa" d="m15.14,30.94h-.02s-.02.01-.02.01c0-.03,0-.05,0-.07,0,0,.01,0,.02,0,0,.02.01.04.02.06h0Z"/><path class="d" d="m28.9,30.53s-.02-.02-.04-.03c.01.01.02.02.04.03Z"/><path class="y" d="m30,25.8s0,.05,0,.07c0,0-.02,0-.02,0,.01-.02.02-.04.03-.06h0Z"/><path class="k" d="m19.75,30.5s-.02.02-.04.03c.01-.01.02-.02.04-.03Z"/><path class="d" d="m27.84,30.88s0-.03-.01-.05c.01,0,.02,0,.03,0,0,.01-.01.03-.02.04Z"/><path class="s" d="m23.89,19.56v.03s-.02-.02-.03-.02c0,0,.02,0,.03,0Z"/><path class="x" d="m11.18,31.54s.02-.02.03-.03c-.01.01-.02.02-.03.03Z"/><path class="p" d="m12.31,28.46s.02-.01.03-.02c0,.01,0,.03,0,.04,0,0-.02-.01-.02-.02h0Z"/><path class="k" d="m25.82,33.53s0-.02,0-.04h.04s-.02.02-.03.04h0Z"/><polygon class="y" points="30 25.8 30.01 25.79 30 25.8 30 25.8"/><path class="k" d="m26.72,33.53s-.02-.02-.03-.04c.01.01.02.02.03.04Z"/><path class="aa" d="m29.02,20.47s-.02.01-.03.02c0-.01,0-.03.01-.04,0,0,.01.01.02.02Z"/><path class="s" d="m22.11,20.76s-.03,0-.04,0c.01,0,.03,0,.04,0Z"/><path class="k" d="m13.35,34.43s.02.02.04.03c-.01-.01-.02-.02-.04-.03Z"/><path class="k" d="m13.34,30.53s-.02-.02-.03-.03c.01.01.02.02.03.03Z"/><path class="l" d="m23.51,19.16s0,0,0,.01c0,0,0,0,0,.01,0,0,0,0,0-.01,0,0,0,0,0-.01Z"/><path class="k" d="m14.87,30.53s0-.02,0-.03c0,0,.02,0,.03,0,0,0-.02.02-.02.03h0Z"/><path class="h" d="m10.34,16.14s.01.02.02.04c-.02,0-.03,0-.04,0,0,0,.02-.02.03-.03h0Z"/><path class="h" d="m30,16.17s0,0-.01,0,0,0-.01-.01c0,0,0,0,.01,0s0,0,.01.01Z"/><path class="j" d="m16.81,21.82c-.34-.02-.67.04-1,.1-.29.05-.58.08-.87.13-.44.07-.87.15-1.31.23-.47.09-.95.19-1.42.29-.13.03-.26.09-.4.07-.05,0-.1-.02-.13-.05-.13-.12-.23-.48-.21-.7.1.15.21.12.35.09.28-.07.56-.11.84-.16.24-.05.49-.11.73-.16.33-.07.67-.14,1-.2.38-.08.77-.1,1.15-.16.44-.06.88-.09,1.31-.14-.01.22-.02.45-.03.67h0Z"/><path class="m" d="m24.25,21.21c.26.04.51.08.77.12.12.02.25.02.37.04.32.05.63.11.95.16.19.03.37.06.56.1.26.05.51.11.76.17.3.07.59.15.9.2.1.02.2-.03.31-.05,0,.22-.07.44-.22.63-.05.07-.12.1-.23.08-.46-.1-.92-.19-1.37-.29-.28-.06-.55-.14-.83-.18-.35-.06-.71-.11-1.06-.18-.22-.04-.46-.05-.68-.08-.05,0-.11-.03-.16-.04-.03-.22-.06-.45-.08-.67h0Z"/><path class="q" d="m21.89,24.22c-.01-.05-.03-.1-.04-.16-.02-.18-.04-.36-.06-.56-.18.01-.34.03-.51.03-.28,0-.56,0-.84,0-.35,0-.64-.14-.89-.37.44,0,.89.04,1.32,0,.43-.03.85-.14,1.28-.22.06.47-.02.9-.2,1.32-.02-.02-.04-.05-.06-.07h0Z"/><path class="q" d="m24.01,16.88c-.1.24-.18.45-.26.65,0,.02-.03.04-.06.04-.14.04-.29.08-.44.1-.03,0-.07-.03-.09-.06-.1-.11-.19-.23-.31-.37.38-.13.73-.29,1.15-.37h0Z"/><path class="q" d="m18.18,17.26c-.09.14-.16.24-.24.35-.02.02-.06.04-.1.04-.13,0-.27,0-.4,0-.04,0-.1-.04-.12-.07-.09-.2-.17-.41-.25-.61-.01-.03,0-.06,0-.09.36.13.71.25,1.1.39h0Z"/><path class="d" d="m21.89,24.22s.04.05.06.07c0,.02-.02.04-.02.06h-.03s0-.09-.01-.13h0Z"/><path class="m" d="m7.11,26.17s.05.01.06.02c.18.16.37.13.57.06.05-.02.09-.03.14-.06.12-.07.13-.14.09-.28-.16-.54-.34-1.07-.49-1.61-.09-.33-.13-.67-.2-1-.08-.38-.16-.75-.23-1.12-.04-.22-.05-.45-.08-.67-.08-.58-.08-1.16-.09-1.75,0-.11.01-.22.01-.34,0-.16-.15-.3-.3-.32-.2-.02-.35.06-.47.23,0-.04-.02-.09-.02-.13.05-.3.11-.6.17-.89.06-.28.12-.56.25-.82.09-.17.15-.36.34-.47.22-.13.55-.15.76.05-.09.28-.19.55-.26.83-.06.26-.09.53-.12.8-.08.66-.07,1.33-.04,2,.01.22.01.45.04.67.03.24.08.47.12.7.06.46.17.91.26,1.37.06.28.14.55.18.83.05.3.16.57.23.86.14.51.34.99.58,1.46.23.43.5.84.82,1.21.17.2.34.4.52.59.1.11.1.16-.02.26-.3.26-.68.28-1.02.06-.29-.18-.52-.43-.73-.69-.39-.51-.7-1.06-.99-1.62-.03-.06-.08-.13-.11-.19,0,0,.02-.02.02-.03h0Z"/><path class="m" d="m5.9,26.43c.05.03.1.06.16.1.14.1.29.07.42,0,.12-.06.15-.19.09-.36-.12-.35-.26-.69-.37-1.04-.15-.48-.28-.97-.37-1.47-.04-.21-.1-.41-.14-.62-.04-.22-.06-.44-.09-.65-.02-.21-.06-.42-.07-.62-.02-.24-.02-.47-.03-.71,0-.27-.02-.54-.02-.81,0-.19.02-.38.04-.57.01-.11-.02-.2-.12-.25-.1-.05-.22-.08-.32,0-.08.06-.15.14-.23.21-.02.03-.04.06-.08.11-.04-.44.13-.99.42-1.23.19-.16.41-.16.64-.13.04,0,.08.02.14.04-.02.13-.03.25-.05.38-.02.15-.05.3-.07.45-.03.21-.06.41-.07.62-.01.12,0,.25,0,.38.02.64.04,1.29.07,1.93.02.27.08.54.13.81.07.36.14.71.21,1.06.04.2.1.39.16.58.07.23.15.46.22.69.11.37.25.72.42,1.07.22.46.45.91.76,1.32.05.06.09.13.14.2-.12.12-.21.25-.37.31-.16.06-.3.05-.46-.06-.34-.25-.57-.59-.8-.92-.17-.24-.3-.5-.42-.77.01,0,.02-.02.03-.03h0Z"/><path class="m" d="m11.91,28.66c-.2.18-.38.27-.63.23-.28-.04-.51-.16-.73-.33-.46-.35-.83-.77-1.16-1.24-.27-.38-.51-.78-.72-1.2-.04-.08-.06-.16-.11-.26.13.04.24.09.34.11.12.02.25.02.34-.08.08-.08.16-.18.23-.26.28.67.59,1.34,1.03,1.94.14.19.3.38.46.56.18.21.44.33.67.46.07.04.15.04.26.06h0Z"/><path class="j" d="m7.47,18.92c.03-.31.04-.61.08-.92.07-.43.16-.86.31-1.27.1-.26.22-.51.4-.72.28-.32.64-.43,1.04-.35.16.03.33.06.46.21-.08,0-.14,0-.2.02-.26.04-.43.22-.57.41-.26.34-.4.73-.49,1.13-.06.25-.12.51-.15.77-.03.24-.03.49-.05.76-.05-.02-.09-.02-.12-.04-.22-.18-.39-.17-.6.02,0,0-.02.01-.03.02-.03-.01-.06-.03-.08-.04h0Z"/><path class="x" d="m7.47,18.92s.06.03.08.04l-.06.15c-.06-.07-.08-.13-.02-.19h0Z"/><path class="m" d="m34.16,19.3c-.07-.12-.17-.19-.31-.21-.22-.02-.39.13-.39.35,0,.42,0,.85-.02,1.27-.02.31-.07.61-.11.91-.02.21-.04.41-.07.62-.04.24-.1.47-.15.71-.04.2-.08.41-.12.61-.09.41-.17.82-.28,1.22-.1.37-.2.73-.36,1.08-.06.14.01.28.19.37.19.09.38.11.56-.02.03-.02.07-.02.14-.04-.09.18-.15.33-.24.46-.24.41-.48.82-.75,1.21-.22.32-.47.61-.81.82-.23.14-.48.19-.74.14-.09-.02-.17-.09-.25-.15-.06-.05-.12-.12-.18-.18.11-.13.22-.26.34-.39.42-.44.77-.92,1.06-1.44.26-.47.46-.97.6-1.49.11-.4.23-.79.33-1.19.09-.36.16-.72.23-1.09.06-.28.11-.56.15-.84.04-.28.06-.56.08-.84,0-.03.02-.05.02-.08.02-.24.05-.48.07-.73.01-.28.03-.55.01-.83-.03-.42-.06-.85-.13-1.27-.06-.39-.18-.76-.28-1.13-.05-.16-.05-.16.11-.22.36-.14.67.02.86.34.15.26.23.54.29.83.05.22.1.45.15.67.03.16.05.33.07.5-.02,0-.05,0-.07,0h0Z"/><path class="m" d="m35.52,19.68c-.1-.09-.16-.23-.3-.27-.08-.02-.16-.04-.24-.03-.13.02-.19.1-.19.24,0,.27.03.53.04.8,0,.52,0,1.03-.08,1.54,0,.03-.02.05-.03.08,0,.3-.07.6-.11.89-.07.61-.24,1.2-.39,1.79-.13.5-.3,1-.51,1.48-.06.14.08.37.24.38.1,0,.2,0,.29-.07.04-.04.09-.05.16-.09,0,.05,0,.09,0,.12-.12.32-.31.59-.5.87-.17.25-.38.46-.6.67-.21.2-.43.2-.61.08-.06-.04-.11-.08-.17-.12-.05-.04-.1-.07-.15-.1.46-.59.82-1.2,1.06-1.86.11-.3.24-.59.34-.9.1-.31.18-.63.27-.94.04-.16.08-.32.12-.47.05-.26.1-.52.15-.78.04-.19.08-.37.1-.56.02-.15.04-.29.05-.44.02-.23.03-.46.04-.69.01-.36.04-.72.03-1.08-.01-.32-.02-.64-.09-.96-.04-.19-.05-.4-.08-.6,0-.02,0-.04,0-.06,0-.05-.04-.13-.03-.15.05-.04.13-.08.2-.09.32-.03.69.06.86.53.09.26.16.51.18.78-.01,0-.03,0-.04,0h0Z"/><path class="m" d="m30.85,25.63c.12.14.19.32.39.36.19.04.34-.05.54-.14-.05.13-.09.23-.13.33-.28.54-.59,1.06-.98,1.54-.27.34-.57.66-.94.9-.2.12-.4.23-.63.28-.26.05-.45-.04-.65-.22.05-.02.09-.05.14-.06.37-.1.64-.34.89-.61.32-.34.57-.71.8-1.11.15-.27.26-.56.39-.85.06-.13.12-.26.19-.42h0Z"/><path class="j" d="m32.86,19.09c-.2-.28-.37-.38-.81-.14-.02-.14-.04-.27-.06-.4-.04-.29-.05-.57-.12-.85-.1-.45-.2-.89-.46-1.28-.11-.17-.23-.34-.43-.44-.12-.06-.26-.08-.4-.12.08-.13.23-.16.38-.2.32-.08.63,0,.89.17.14.09.25.23.34.37.22.37.36.77.44,1.19.05.25.1.5.15.75.02.1.02.21.03.31.02.2.03.4.04.63h0Z"/><path class="y" d="m33.08,21.14s-.02.05-.02.08c0-.03.02-.05.02-.08Z"/><path class="h" d="m34.74,22.04s.02-.05.03-.08c.06.05,0,.06-.03.08Z"/><path class="u" d="m34.16,19.3s.05,0,.07,0c0,.02,0,.05-.01.07-.02-.02-.04-.05-.06-.07Z"/><path class="v" d="m35.52,19.68s.03,0,.04,0c0,.01,0,.02,0,.03-.01,0-.02-.02-.04-.03h0Z"/><path class="v" d="m32.06,18.98s0,0,0,.01c0,0-.01,0-.02-.01,0,0,0,0,.01-.01,0,0,0,0,.01.01h0Z"/><path class="aa" d="m13.85,33.53s.03-.05.05-.05c.03,0,.06,0,.09.02-.02.02-.04.05-.06.07-.01,0-.04,0-.06,0,0-.01-.02-.03-.03-.04h0Z"/><path class="u" d="m13.85,33.53s.02.03.03.04c-.02.01-.03.02-.05.03-.02-.05-.04-.09-.07-.14,0,0,.02,0,.02-.01.02.03.04.05.06.08h0Z"/><path class="c" d="m23.61,32.69c-.02-.09-.04-.19-.07-.31.13.1.12.2.1.32,0,0-.02,0-.03,0Z"/><path class="d" d="m23.61,32.69s.02,0,.03,0c.07.06.04.13,0,.2-.01-.07-.02-.14-.03-.2h0Z"/><path class="y" d="m23.1,32.71v-.12s.05.03.08.05c-.03.02-.05.05-.08.07Z"/><path class="u" d="m25.51,32.66c-.02-.09-.04-.19-.06-.28.06.08.16.15.1.27-.01,0-.03,0-.04,0h0Z"/><path class="k" d="m25.73,33.9v.15c-.06,0-.11-.01-.1-.09,0-.07.05-.07.1-.07Z"/><path class="h" d="m25.51,32.66s.03,0,.04,0c0,.05.02.1.03.16,0,0-.02,0-.03,0-.01-.05-.03-.1-.04-.15h0Z"/><path class="k" d="m25.73,33.49v.08s-.04-.03-.05-.04c.02-.01.04-.03.05-.04h0Z"/><path class="x" d="m17.14,31.69s.02-.05.04-.05c.08,0,.16,0,.24.01,0,.02,0,.05,0,.07-.09-.01-.19-.02-.28-.04h0Z"/><path class="u" d="m16.93,31.69s.08-.08.13-.1c.05-.02.06,0,.06.08-.06,0-.13.01-.19.02Z"/><path class="k" d="m17.46,31.77c.08,0,.08.06.08.11-.02-.04-.05-.08-.08-.11Z"/><path class="k" d="m17,33.04h-.04s.02-.04.04-.06v.06h0Z"/><path class="y" d="m17.42,31.73s0-.05,0-.07c.07.01.04.07.04.11-.01-.01-.03-.02-.04-.04Z"/><path class="h" d="m15.44,32.44c.02-.08.09-.08.15-.08,0,.12-.09.08-.15.08Z"/><path class="h" d="m17.54,31.35c-.03.05-.07.08-.14.04l.14-.04h0Z"/><path class="h" d="m17.18,31.51s.07-.02.11-.04c0,0,0,.01,0,.02-.03.02-.06.04-.09.06l-.02-.03h0Z"/><path class="h" d="m17.54,31.35s.01-.01.02-.02h0s-.01.02-.02.02h0Z"/><text class="o" transform="translate(43.4 26.94) scale(.95 1)"><tspan class="n" x="0" y="0">GYM BULL</tspan><tspan class="w" x="92.11" y="0"></tspan><tspan class="n" x="96.42" y="0">S</tspan></text></svg>